<svg width="300" height="168" viewBox="0 0 300 168" fill="none" xmlns="http://www.w3.org/2000/svg">
<rect width="300" height="168" fill="#2B4380"/>
<path fill-rule="evenodd" clip-rule="evenodd" d="M153.083 69.1668C153.083 71.1377 151.471 72.7502 149.5 72.7502C147.529 72.7502 145.917 71.1377 145.917 69.1668C145.917 67.196 147.529 65.5835 149.5 65.5835C151.471 65.5835 153.083 67.196 153.083 69.1668ZM149.5 74.5418C154.57 74.5418 160.053 74.0043 164.729 72.7502L165.625 76.3335C162.292 77.2293 158.458 77.8206 154.875 78.1252V101.417H151.292V90.6668H147.708V101.417H144.125V78.1252C140.542 77.8206 136.707 77.2293 133.375 76.3335L134.271 72.7502C138.947 74.0043 144.43 74.5418 149.5 74.5418Z" fill="white"/>
</svg>
