<svg width="300" height="168" viewBox="0 0 300 168" fill="none" xmlns="http://www.w3.org/2000/svg">
<rect width="300" height="168" fill="#1B7B26"/>
<path fill-rule="evenodd" clip-rule="evenodd" d="M149.5 72.7498C143.57 72.7498 138.75 77.5694 138.75 83.4998H144.125L136.958 90.6665L129.792 83.4998H135.167C135.167 75.5807 141.581 69.1665 149.5 69.1665C152.313 69.1665 154.929 69.9907 157.132 71.3882L154.517 74.004C153.03 73.1978 151.31 72.7498 149.5 72.7498ZM154.875 83.4998L162.042 76.3332L169.208 83.4998H163.833C163.833 91.419 157.419 97.8332 149.5 97.8332C146.687 97.8332 144.071 97.009 141.867 95.6115L144.483 92.9957C145.97 93.8019 147.69 94.2498 149.5 94.2498C155.43 94.2498 160.25 89.4303 160.25 83.4998H154.875Z" fill="white"/>
</svg>
