<svg width="300" height="59" viewBox="0 0 300 59" fill="none" xmlns="http://www.w3.org/2000/svg">
<g clip-path="url(#clip0_225_2856)">
<path d="M80.588 25.698C79.5613 25.698 78.7033 25.478 78.014 25.038C77.3393 24.598 76.826 23.9893 76.474 23.212C76.122 22.4347 75.9167 21.5327 75.858 20.506L78.058 19.912C78.102 20.5427 78.1973 21.1513 78.344 21.738C78.5053 22.3247 78.762 22.8087 79.114 23.19C79.466 23.5567 79.9573 23.74 80.588 23.74C81.2333 23.74 81.7173 23.564 82.04 23.212C82.3773 22.8453 82.546 22.3247 82.546 21.65C82.546 20.8433 82.3627 20.198 81.996 19.714C81.6293 19.2153 81.1673 18.7167 80.61 18.218L77.618 15.578C77.0313 15.0647 76.5987 14.5073 76.32 13.906C76.0413 13.29 75.902 12.5347 75.902 11.64C75.902 10.3347 76.276 9.32267 77.024 8.604C77.772 7.88533 78.7913 7.526 80.082 7.526C80.786 7.526 81.402 7.62133 81.93 7.812C82.4727 7.988 82.92 8.26667 83.272 8.648C83.6387 9.02933 83.9247 9.51333 84.13 10.1C84.35 10.672 84.4967 11.3467 84.57 12.124L82.458 12.696C82.414 12.1093 82.326 11.574 82.194 11.09C82.062 10.5913 81.8273 10.1953 81.49 9.902C81.1673 9.594 80.698 9.44 80.082 9.44C79.466 9.44 78.982 9.60867 78.63 9.946C78.2927 10.2687 78.124 10.7527 78.124 11.398C78.124 11.9407 78.212 12.388 78.388 12.74C78.5787 13.092 78.8793 13.4513 79.29 13.818L82.304 16.458C82.9787 17.0447 83.5727 17.7487 84.086 18.57C84.5993 19.3767 84.856 20.3373 84.856 21.452C84.856 22.332 84.6727 23.0947 84.306 23.74C83.9393 24.3707 83.4333 24.8547 82.788 25.192C82.1573 25.5293 81.424 25.698 80.588 25.698ZM90.1064 25.676C89.1091 25.676 88.3391 25.4853 87.7964 25.104C87.2538 24.708 86.8724 24.136 86.6524 23.388C86.4471 22.6253 86.3444 21.694 86.3444 20.594V17.69C86.3444 16.5607 86.4544 15.622 86.6744 14.874C86.8944 14.126 87.2758 13.5613 87.8184 13.18C88.3758 12.7987 89.1384 12.608 90.1064 12.608C91.1771 12.608 91.9618 12.828 92.4604 13.268C92.9738 13.708 93.3111 14.346 93.4724 15.182C93.6338 16.0033 93.7144 16.9933 93.7144 18.152V19.186H88.6984V21.738C88.6984 22.2513 88.7424 22.6693 88.8304 22.992C88.9331 23.3147 89.0871 23.5567 89.2924 23.718C89.5124 23.8647 89.7911 23.938 90.1284 23.938C90.4804 23.938 90.7444 23.8573 90.9204 23.696C91.1111 23.52 91.2358 23.278 91.2944 22.97C91.3678 22.6473 91.4044 22.2733 91.4044 21.848V21.078H93.6924V21.562C93.6924 22.838 93.4211 23.8427 92.8784 24.576C92.3358 25.3093 91.4118 25.676 90.1064 25.676ZM88.6984 17.91H91.4044V16.766C91.4044 16.238 91.3751 15.798 91.3164 15.446C91.2578 15.0793 91.1331 14.808 90.9424 14.632C90.7664 14.4413 90.4804 14.346 90.0844 14.346C89.7031 14.346 89.4098 14.434 89.2044 14.61C89.0138 14.786 88.8818 15.0867 88.8084 15.512C88.7351 15.9227 88.6984 16.4947 88.6984 17.228V17.91ZM95.9122 25.5V12.784H98.2662V14.588C98.7355 13.8107 99.2049 13.29 99.6742 13.026C100.144 12.762 100.613 12.63 101.082 12.63C101.141 12.63 101.192 12.63 101.236 12.63C101.295 12.63 101.368 12.6373 101.456 12.652V15.248C101.28 15.1747 101.075 15.116 100.84 15.072C100.62 15.0133 100.393 14.984 100.158 14.984C99.7915 14.984 99.4542 15.072 99.1462 15.248C98.8529 15.4093 98.5595 15.732 98.2662 16.216V25.5H95.9122ZM104.565 25.5L102.057 12.784H104.433L105.995 23.014L107.579 12.784H109.867L107.447 25.5H104.565ZM111.533 25.5V12.784H113.887V25.5H111.533ZM111.533 10.892V8.428H113.887V10.892H111.533ZM119.883 25.676C118.841 25.676 118.049 25.4707 117.507 25.06C116.979 24.6347 116.619 24.0407 116.429 23.278C116.253 22.5153 116.165 21.628 116.165 20.616V17.69C116.165 16.6193 116.26 15.71 116.451 14.962C116.641 14.1993 117.001 13.62 117.529 13.224C118.071 12.8133 118.856 12.608 119.883 12.608C120.807 12.608 121.518 12.762 122.017 13.07C122.53 13.3633 122.882 13.8107 123.073 14.412C123.263 14.9987 123.359 15.732 123.359 16.612V17.36H121.225V16.59C121.225 16.0327 121.188 15.5927 121.115 15.27C121.041 14.9473 120.909 14.7127 120.719 14.566C120.528 14.4193 120.257 14.346 119.905 14.346C119.523 14.346 119.23 14.434 119.025 14.61C118.819 14.786 118.68 15.0867 118.607 15.512C118.548 15.9227 118.519 16.4873 118.519 17.206V21.21C118.519 22.2953 118.621 23.0213 118.827 23.388C119.032 23.7547 119.399 23.938 119.927 23.938C120.323 23.938 120.609 23.85 120.785 23.674C120.975 23.4833 121.093 23.2193 121.137 22.882C121.195 22.5447 121.225 22.1633 121.225 21.738V20.704H123.359V21.584C123.359 22.4347 123.256 23.168 123.051 23.784C122.86 24.4 122.508 24.8693 121.995 25.192C121.496 25.5147 120.792 25.676 119.883 25.676ZM128.864 25.676C127.867 25.676 127.097 25.4853 126.554 25.104C126.012 24.708 125.63 24.136 125.41 23.388C125.205 22.6253 125.102 21.694 125.102 20.594V17.69C125.102 16.5607 125.212 15.622 125.432 14.874C125.652 14.126 126.034 13.5613 126.576 13.18C127.134 12.7987 127.896 12.608 128.864 12.608C129.935 12.608 130.72 12.828 131.218 13.268C131.732 13.708 132.069 14.346 132.23 15.182C132.392 16.0033 132.472 16.9933 132.472 18.152V19.186H127.456V21.738C127.456 22.2513 127.5 22.6693 127.588 22.992C127.691 23.3147 127.845 23.5567 128.05 23.718C128.27 23.8647 128.549 23.938 128.886 23.938C129.238 23.938 129.502 23.8573 129.678 23.696C129.869 23.52 129.994 23.278 130.052 22.97C130.126 22.6473 130.162 22.2733 130.162 21.848V21.078H132.45V21.562C132.45 22.838 132.179 23.8427 131.636 24.576C131.094 25.3093 130.17 25.676 128.864 25.676ZM127.456 17.91H130.162V16.766C130.162 16.238 130.133 15.798 130.074 15.446C130.016 15.0793 129.891 14.808 129.7 14.632C129.524 14.4413 129.238 14.346 128.842 14.346C128.461 14.346 128.168 14.434 127.962 14.61C127.772 14.786 127.64 15.0867 127.566 15.512C127.493 15.9227 127.456 16.4947 127.456 17.228V17.91ZM141.545 25.676C141.047 25.676 140.607 25.5367 140.225 25.258C139.844 24.9647 139.543 24.598 139.323 24.158C139.103 23.7033 138.993 23.2267 138.993 22.728C138.993 21.936 139.125 21.2687 139.389 20.726C139.653 20.1833 140.013 19.7287 140.467 19.362C140.937 18.9807 141.472 18.6507 142.073 18.372C142.689 18.0933 143.335 17.822 144.009 17.558V16.656C144.009 16.1427 143.98 15.7173 143.921 15.38C143.863 15.0427 143.738 14.7933 143.547 14.632C143.371 14.456 143.1 14.368 142.733 14.368C142.411 14.368 142.147 14.4413 141.941 14.588C141.751 14.7347 141.611 14.9473 141.523 15.226C141.435 15.49 141.391 15.8053 141.391 16.172V16.81L139.059 16.722C139.089 15.314 139.411 14.28 140.027 13.62C140.643 12.9453 141.597 12.608 142.887 12.608C144.149 12.608 145.043 12.9527 145.571 13.642C146.099 14.3313 146.363 15.3287 146.363 16.634V22.442C146.363 22.838 146.371 23.2193 146.385 23.586C146.415 23.9527 146.444 24.2973 146.473 24.62C146.517 24.928 146.554 25.2213 146.583 25.5H144.427C144.383 25.2653 144.325 24.972 144.251 24.62C144.193 24.2533 144.149 23.9233 144.119 23.63C143.973 24.1287 143.687 24.598 143.261 25.038C142.851 25.4633 142.279 25.676 141.545 25.676ZM142.469 23.652C142.704 23.652 142.924 23.586 143.129 23.454C143.335 23.322 143.518 23.1753 143.679 23.014C143.841 22.838 143.951 22.6987 144.009 22.596V18.988C143.643 19.1933 143.298 19.3987 142.975 19.604C142.653 19.8093 142.367 20.0293 142.117 20.264C141.883 20.484 141.692 20.7407 141.545 21.034C141.413 21.3127 141.347 21.6353 141.347 22.002C141.347 22.5153 141.443 22.9187 141.633 23.212C141.824 23.5053 142.103 23.652 142.469 23.652ZM148.633 25.5V12.784H150.987V14.038C151.413 13.642 151.882 13.3047 152.395 13.026C152.909 12.7473 153.473 12.608 154.089 12.608C154.603 12.608 154.991 12.74 155.255 13.004C155.534 13.268 155.725 13.598 155.827 13.994C155.945 14.39 156.003 14.7933 156.003 15.204V25.5H153.649V15.886C153.649 15.4313 153.583 15.0793 153.451 14.83C153.319 14.5807 153.048 14.456 152.637 14.456C152.373 14.456 152.095 14.5367 151.801 14.698C151.523 14.8447 151.251 15.028 150.987 15.248V25.5H148.633ZM161.249 25.676C160.179 25.676 159.379 25.2873 158.851 24.51C158.323 23.718 158.059 22.3833 158.059 20.506V18.042C158.059 17.074 158.14 16.1793 158.301 15.358C158.463 14.522 158.763 13.8547 159.203 13.356C159.658 12.8573 160.318 12.608 161.183 12.608C161.609 12.608 161.997 12.7033 162.349 12.894C162.701 13.0847 163.017 13.3193 163.295 13.598V7.68H165.649V25.5H163.295V24.686C163.017 24.9793 162.709 25.2213 162.371 25.412C162.049 25.588 161.675 25.676 161.249 25.676ZM161.843 23.828C162.063 23.828 162.298 23.7913 162.547 23.718C162.797 23.63 163.046 23.5053 163.295 23.344V15.006C163.09 14.8593 162.863 14.7347 162.613 14.632C162.364 14.5147 162.093 14.456 161.799 14.456C161.257 14.456 160.89 14.72 160.699 15.248C160.509 15.7613 160.413 16.3847 160.413 17.118V20.704C160.413 21.2907 160.443 21.826 160.501 22.31C160.575 22.7793 160.714 23.1533 160.919 23.432C161.125 23.696 161.433 23.828 161.843 23.828ZM173.259 25.5V7.68H177.131C178.451 7.68 179.492 7.88533 180.255 8.296C181.032 8.692 181.582 9.29333 181.905 10.1C182.242 10.9067 182.411 11.9113 182.411 13.114V19.67C182.411 20.9313 182.242 21.9947 181.905 22.86C181.582 23.7253 181.047 24.3853 180.299 24.84C179.566 25.28 178.576 25.5 177.329 25.5H173.259ZM175.745 23.718H177.153C178.062 23.718 178.708 23.542 179.089 23.19C179.47 22.838 179.698 22.3247 179.771 21.65C179.859 20.9753 179.903 20.1613 179.903 19.208V13.422C179.903 12.498 179.844 11.75 179.727 11.178C179.61 10.606 179.353 10.188 178.957 9.924C178.561 9.66 177.938 9.528 177.087 9.528H175.745V23.718ZM184.817 25.5V12.784H187.171V25.5H184.817ZM184.817 10.892V8.428H187.171V10.892H184.817ZM193.056 29.482C192.279 29.482 191.575 29.394 190.944 29.218C190.328 29.0567 189.837 28.8 189.47 28.448C189.118 28.096 188.942 27.634 188.942 27.062C188.942 26.622 189.045 26.2333 189.25 25.896C189.455 25.5733 189.719 25.2947 190.042 25.06C190.365 24.8253 190.702 24.642 191.054 24.51L192.154 24.664C191.963 24.84 191.78 25.0233 191.604 25.214C191.428 25.39 191.281 25.5733 191.164 25.764C191.047 25.9693 190.988 26.1893 190.988 26.424C190.988 26.8053 191.149 27.0913 191.472 27.282C191.809 27.4727 192.403 27.568 193.254 27.568C194.09 27.568 194.706 27.4653 195.102 27.26C195.513 27.0693 195.718 26.7613 195.718 26.336C195.718 26.072 195.667 25.852 195.564 25.676C195.461 25.5147 195.285 25.3827 195.036 25.28C194.787 25.1773 194.427 25.104 193.958 25.06L191.186 24.708C190.614 24.6347 190.189 24.4513 189.91 24.158C189.631 23.8647 189.492 23.542 189.492 23.19C189.492 22.662 189.639 22.2147 189.932 21.848C190.24 21.4813 190.651 21.0707 191.164 20.616L191.956 21.232C191.868 21.3493 191.758 21.518 191.626 21.738C191.494 21.9433 191.428 22.1487 191.428 22.354C191.428 22.5153 191.509 22.6473 191.67 22.75C191.846 22.8527 192.117 22.9187 192.484 22.948L194.618 23.146C195.615 23.234 196.356 23.5347 196.84 24.048C197.324 24.5613 197.566 25.2947 197.566 26.248C197.566 26.952 197.397 27.546 197.06 28.03C196.737 28.514 196.246 28.8733 195.586 29.108C194.926 29.3573 194.083 29.482 193.056 29.482ZM193.144 21.584C192.279 21.584 191.575 21.3933 191.032 21.012C190.489 20.6307 190.086 20.1027 189.822 19.428C189.573 18.7533 189.448 17.9833 189.448 17.118C189.448 16.1353 189.587 15.314 189.866 14.654C190.145 13.9793 190.555 13.4733 191.098 13.136C191.655 12.784 192.337 12.608 193.144 12.608C193.98 12.608 194.662 12.8207 195.19 13.246C195.718 13.6567 196.107 14.2067 196.356 14.896C196.605 15.5853 196.73 16.348 196.73 17.184C196.73 18.0493 196.613 18.8193 196.378 19.494C196.158 20.154 195.784 20.6673 195.256 21.034C194.743 21.4007 194.039 21.584 193.144 21.584ZM193.144 19.89C193.467 19.89 193.723 19.8313 193.914 19.714C194.105 19.582 194.244 19.3987 194.332 19.164C194.435 18.9293 194.501 18.6433 194.53 18.306C194.574 17.954 194.596 17.558 194.596 17.118C194.596 16.678 194.581 16.282 194.552 15.93C194.523 15.578 194.457 15.2847 194.354 15.05C194.251 14.8007 194.105 14.61 193.914 14.478C193.723 14.346 193.474 14.28 193.166 14.28C192.843 14.28 192.579 14.346 192.374 14.478C192.183 14.5953 192.029 14.7787 191.912 15.028C191.809 15.2627 191.736 15.556 191.692 15.908C191.663 16.26 191.648 16.6633 191.648 17.118C191.648 17.514 191.663 17.8807 191.692 18.218C191.736 18.5553 191.809 18.8487 191.912 19.098C192.015 19.3473 192.161 19.5453 192.352 19.692C192.557 19.824 192.821 19.89 193.144 19.89ZM196.29 14.918L195.74 14.038C195.857 13.8327 196.121 13.576 196.532 13.268C196.943 12.96 197.383 12.7033 197.852 12.498L198.468 14.038C198.263 14.082 197.984 14.1627 197.632 14.28C197.295 14.3973 196.987 14.522 196.708 14.654C196.429 14.7713 196.29 14.8593 196.29 14.918ZM199.555 25.5V12.784H201.909V25.5H199.555ZM199.555 10.892V8.428H201.909V10.892H199.555ZM207.816 25.676C207.156 25.676 206.621 25.5513 206.21 25.302C205.814 25.0527 205.521 24.7007 205.33 24.246C205.154 23.7913 205.066 23.256 205.066 22.64V14.346H203.724V12.784H205.066V9.066H207.42V12.784H209.466V14.346H207.42V22.486C207.42 22.9847 207.501 23.344 207.662 23.564C207.824 23.7693 208.132 23.872 208.586 23.872C208.704 23.872 208.836 23.8647 208.982 23.85C209.144 23.8353 209.298 23.8207 209.444 23.806V25.544C209.151 25.588 208.88 25.6173 208.63 25.632C208.381 25.6613 208.11 25.676 207.816 25.676ZM213.11 25.676C212.611 25.676 212.171 25.5367 211.79 25.258C211.408 24.9647 211.108 24.598 210.888 24.158C210.668 23.7033 210.558 23.2267 210.558 22.728C210.558 21.936 210.69 21.2687 210.954 20.726C211.218 20.1833 211.577 19.7287 212.032 19.362C212.501 18.9807 213.036 18.6507 213.638 18.372C214.254 18.0933 214.899 17.822 215.574 17.558V16.656C215.574 16.1427 215.544 15.7173 215.486 15.38C215.427 15.0427 215.302 14.7933 215.112 14.632C214.936 14.456 214.664 14.368 214.298 14.368C213.975 14.368 213.711 14.4413 213.506 14.588C213.315 14.7347 213.176 14.9473 213.088 15.226C213 15.49 212.956 15.8053 212.956 16.172V16.81L210.624 16.722C210.653 15.314 210.976 14.28 211.592 13.62C212.208 12.9453 213.161 12.608 214.452 12.608C215.713 12.608 216.608 12.9527 217.136 13.642C217.664 14.3313 217.928 15.3287 217.928 16.634V22.442C217.928 22.838 217.935 23.2193 217.95 23.586C217.979 23.9527 218.008 24.2973 218.038 24.62C218.082 24.928 218.118 25.2213 218.148 25.5H215.992C215.948 25.2653 215.889 24.972 215.816 24.62C215.757 24.2533 215.713 23.9233 215.684 23.63C215.537 24.1287 215.251 24.598 214.826 25.038C214.415 25.4633 213.843 25.676 213.11 25.676ZM214.034 23.652C214.268 23.652 214.488 23.586 214.694 23.454C214.899 23.322 215.082 23.1753 215.244 23.014C215.405 22.838 215.515 22.6987 215.574 22.596V18.988C215.207 19.1933 214.862 19.3987 214.54 19.604C214.217 19.8093 213.931 20.0293 213.682 20.264C213.447 20.484 213.256 20.7407 213.11 21.034C212.978 21.3127 212.912 21.6353 212.912 22.002C212.912 22.5153 213.007 22.9187 213.198 23.212C213.388 23.5053 213.667 23.652 214.034 23.652ZM220.418 25.5V7.68H222.772V25.5H220.418ZM78.344 51.5V35.528H75.33V33.68H83.756V35.528H80.83V51.5H78.344ZM87.3774 51.676C86.4387 51.676 85.6981 51.4853 85.1554 51.104C84.6127 50.7227 84.2241 50.18 83.9894 49.476C83.7694 48.772 83.6594 47.9433 83.6594 46.99V43.294C83.6594 42.3407 83.7694 41.512 83.9894 40.808C84.2241 40.104 84.6127 39.5613 85.1554 39.18C85.6981 38.7987 86.4387 38.608 87.3774 38.608C88.3161 38.608 89.0494 38.7987 89.5774 39.18C90.1201 39.5613 90.5014 40.104 90.7214 40.808C90.9561 41.512 91.0734 42.3407 91.0734 43.294V46.99C91.0734 47.9433 90.9561 48.772 90.7214 49.476C90.5014 50.18 90.1201 50.7227 89.5774 51.104C89.0494 51.4853 88.3161 51.676 87.3774 51.676ZM87.3774 49.938C87.8321 49.938 88.1474 49.806 88.3234 49.542C88.5141 49.278 88.6241 48.9333 88.6534 48.508C88.6974 48.068 88.7194 47.6133 88.7194 47.144V43.162C88.7194 42.678 88.6974 42.2233 88.6534 41.798C88.6241 41.3727 88.5141 41.028 88.3234 40.764C88.1474 40.4853 87.8321 40.346 87.3774 40.346C86.9227 40.346 86.6001 40.4853 86.4094 40.764C86.2187 41.028 86.1014 41.3727 86.0574 41.798C86.0281 42.2233 86.0134 42.678 86.0134 43.162V47.144C86.0134 47.6133 86.0281 48.068 86.0574 48.508C86.1014 48.9333 86.2187 49.278 86.4094 49.542C86.6001 49.806 86.9227 49.938 87.3774 49.938ZM96.7231 51.676C95.7844 51.676 95.0438 51.4853 94.5011 51.104C93.9584 50.7227 93.5698 50.18 93.3351 49.476C93.1151 48.772 93.0051 47.9433 93.0051 46.99V43.294C93.0051 42.3407 93.1151 41.512 93.3351 40.808C93.5698 40.104 93.9584 39.5613 94.5011 39.18C95.0438 38.7987 95.7844 38.608 96.7231 38.608C97.6618 38.608 98.3951 38.7987 98.9231 39.18C99.4658 39.5613 99.8471 40.104 100.067 40.808C100.302 41.512 100.419 42.3407 100.419 43.294V46.99C100.419 47.9433 100.302 48.772 100.067 49.476C99.8471 50.18 99.4658 50.7227 98.9231 51.104C98.3951 51.4853 97.6618 51.676 96.7231 51.676ZM96.7231 49.938C97.1778 49.938 97.4931 49.806 97.6691 49.542C97.8598 49.278 97.9698 48.9333 97.9991 48.508C98.0431 48.068 98.0651 47.6133 98.0651 47.144V43.162C98.0651 42.678 98.0431 42.2233 97.9991 41.798C97.9698 41.3727 97.8598 41.028 97.6691 40.764C97.4931 40.4853 97.1778 40.346 96.7231 40.346C96.2684 40.346 95.9458 40.4853 95.7551 40.764C95.5644 41.028 95.4471 41.3727 95.4031 41.798C95.3738 42.2233 95.3591 42.678 95.3591 43.162V47.144C95.3591 47.6133 95.3738 48.068 95.4031 48.508C95.4471 48.9333 95.5644 49.278 95.7551 49.542C95.9458 49.806 96.2684 49.938 96.7231 49.938ZM102.791 51.5V33.68H105.145V51.5H102.791ZM107.642 51.478V33.658H109.996V44.284L113.428 38.784H115.892L112.9 43.756L115.804 51.5H113.45L111.074 44.988L109.996 46.616V51.478H107.642ZM117.184 51.5V38.784H119.538V51.5H117.184ZM117.184 36.892V34.428H119.538V36.892H117.184ZM125.445 51.676C124.785 51.676 124.25 51.5513 123.839 51.302C123.443 51.0527 123.15 50.7007 122.959 50.246C122.783 49.7913 122.695 49.256 122.695 48.64V40.346H121.353V38.784H122.695V35.066H125.049V38.784H127.095V40.346H125.049V48.486C125.049 48.9847 125.13 49.344 125.291 49.564C125.452 49.7693 125.76 49.872 126.215 49.872C126.332 49.872 126.464 49.8647 126.611 49.85C126.772 49.8353 126.926 49.8207 127.073 49.806V51.544C126.78 51.588 126.508 51.6173 126.259 51.632C126.01 51.6613 125.738 51.676 125.445 51.676Z" fill="black"/>
<path d="M57.2355 1.26465H0.764648V57.7355H57.2355V1.26465Z" fill="black"/>
<path d="M46.7495 16.9713L46.6621 14.4809C46.6621 14.2406 46.8587 14.2406 47.2956 14.328L49.3054 14.7212L49.0433 14.0659C48.9559 13.8037 48.934 13.6508 49.1307 13.476L51.5118 11.5318L51.0749 11.2696C50.9438 11.1822 50.9438 11.073 51.0094 10.8546L51.4463 9.41275L50.2885 9.65305C49.9608 9.71859 49.8734 9.65305 49.8079 9.47829L49.4802 8.82292L48.3442 10.1118C48.1476 10.3521 47.8636 10.1992 47.951 9.84966L48.4971 7.1845L47.667 7.66511C47.5359 7.75249 47.383 7.77433 47.3175 7.62141L46.4218 5.83008L45.5261 7.62141C45.4388 7.77433 45.3077 7.75249 45.1766 7.66511L44.3465 7.1845L44.8926 9.84966C44.98 10.1992 44.696 10.3521 44.4994 10.1118L43.3634 8.82292L43.0357 9.47829C42.9484 9.65305 42.861 9.74044 42.5551 9.65305L41.3973 9.41275L41.8342 10.8546C41.8998 11.073 41.8998 11.1822 41.7687 11.2696L41.3318 11.5318L43.713 13.476C43.9096 13.6508 43.8877 13.8256 43.8003 14.0659L43.5382 14.7212L45.548 14.328C45.9849 14.2406 46.1815 14.2406 46.1815 14.4809L46.0941 16.9713H46.7495Z" fill="white"/>
<path d="M37.2858 31.5546C37.2858 33.2213 37.2638 33.6599 37.1542 34.1424C37.0007 34.8661 36.584 36.1161 34.3472 36.1161C32.4393 36.1161 31.6717 34.9976 31.4744 33.8354C31.4305 33.4845 31.3428 32.9582 31.3428 29.8441C31.3428 26.5547 31.3866 26.1818 31.4744 25.6336C31.584 25.0854 31.891 23.2871 34.4568 23.2871C35.4875 23.2871 36.7594 23.7257 37.0665 25.0854C37.198 25.6775 37.198 26.4231 37.198 27.388H35.7507V26.445C35.7507 25.5897 35.7287 24.581 34.4568 24.581C33.141 24.581 33.0314 25.6336 32.9656 26.1161C32.8559 27.0152 32.8559 28.9011 32.8559 29.8441C32.8559 30.6117 32.8998 33.1336 32.9656 33.6161C33.0094 33.8354 33.1849 34.7783 34.413 34.7783C35.5314 34.7783 35.6849 33.8354 35.7287 33.5941C35.7945 33.2871 35.7945 33.002 35.7945 31.5108H37.2858V31.5546Z" fill="white"/>
<path d="M38.5566 35.962V23.5059H40.9031C42.1093 23.5059 43.2277 23.5059 43.9733 24.4488C44.5654 25.1725 44.6093 25.8304 44.6093 28.8348C44.6093 29.5146 44.6093 30.3041 44.5654 31.9927C44.5435 33.1988 44.5216 34.098 44.061 34.8217C43.3593 35.9401 42.197 35.9401 40.8593 35.9401H38.5566V35.962ZM40.1137 34.6024H41.1224C42.1093 34.6024 42.811 34.5146 42.9865 33.3962C43.0742 32.8041 43.0961 31.0717 43.0961 30.4138C43.0961 29.2734 43.0961 28.8348 43.0742 27.6287C43.0523 26.269 43.0303 25.6111 42.4821 25.2164C42.0873 24.9532 41.7365 24.9532 40.0917 24.9532V34.6024H40.1137Z" fill="white"/>
<path d="M45.5967 31.6418H47.0879C47.0879 32.9576 47.0879 33.0892 47.1098 33.3085C47.1318 33.6155 47.2414 34.7997 48.6011 34.7997C49.1054 34.7997 50.18 34.6024 50.18 33.2427C50.18 32.2559 49.7414 31.7515 49.0397 31.0278L47.3511 29.2953C46.1669 28.0892 45.9256 27.3217 45.9256 26.1813C45.9256 25.5015 45.9256 23.2646 48.8204 23.2646C49.4563 23.2646 50.5309 23.3743 51.1011 24.2953C51.4519 24.8875 51.4519 25.3041 51.4519 27.1243H50.0923C50.0484 25.9401 50.0484 25.8085 50.0265 25.5892C49.9826 25.3699 49.8291 24.5804 48.7326 24.5804C47.4388 24.5804 47.4388 25.6989 47.4388 26.0717C47.4388 27.0146 47.7677 27.3875 48.6449 28.3085L50.2239 29.9532C51.2546 31.0497 51.7151 31.6857 51.7151 33.1111C51.7151 35.7646 49.6318 36.0936 48.7107 36.0936C47.5046 36.0936 46.8686 35.6989 46.6274 35.4796C45.8379 34.8655 45.6625 33.9225 45.6625 33.0015V31.6418H45.5967Z" fill="white"/>
<path d="M31.3428 47.4924H32.834C32.834 48.8082 32.834 48.9398 32.8559 49.1591C32.8779 49.4661 32.9875 50.6503 34.3472 50.6503C34.8515 50.6503 35.9261 50.453 35.9261 49.0933C35.9261 48.1065 35.4875 47.6021 34.7858 46.8784L33.0972 45.1459C31.9129 43.9398 31.6717 43.1723 31.6717 42.0319C31.6717 41.3521 31.6717 39.1152 34.5665 39.1152C35.2024 39.1152 36.277 39.2249 36.8472 40.1459C37.198 40.738 37.198 41.1547 37.198 42.9749H35.7945C35.7507 41.7907 35.7507 41.6591 35.7287 41.4398C35.6849 41.2205 35.5314 40.431 34.4349 40.431C33.141 40.431 33.141 41.5494 33.141 41.9223C33.141 42.8652 33.47 43.238 34.3472 44.1591L35.9261 45.8038C36.9568 46.9003 37.4173 47.5363 37.4173 48.9617C37.4173 51.6152 35.334 51.9442 34.4129 51.9442C33.2068 51.9442 32.5708 51.5494 32.3296 51.3301C31.5401 50.7161 31.3647 49.7731 31.3647 48.8521V47.4924H31.3428Z" fill="white"/>
<path d="M44.3468 51.7901H42.1539L39.7416 41.0006L39.9609 51.7901H38.4258V39.334H40.531L43.053 50.255L42.8337 39.334H44.3249V51.7901H44.3468Z" fill="white"/>
<path d="M51.5182 47.4043C51.5182 49.0709 51.4962 49.5095 51.3866 49.992C51.2331 50.7157 50.8164 51.9657 48.5796 51.9657C46.6717 51.9657 45.9041 50.8472 45.7068 49.685C45.6629 49.3341 45.5752 48.8078 45.5752 45.6937C45.5752 42.4043 45.6191 42.0315 45.7068 41.4832C45.8164 40.935 46.1234 39.1367 48.6892 39.1367C49.7199 39.1367 50.9919 39.5753 51.2989 40.935C51.4305 41.5271 51.4305 42.2727 51.4305 43.2376H49.9831V42.2946C49.9831 41.4394 49.9612 40.4306 48.6892 40.4306C47.3734 40.4306 47.2638 41.4832 47.198 41.9657C47.0884 42.8648 47.0884 44.7508 47.0884 45.6937C47.0884 46.4613 47.1322 48.9832 47.198 49.4657C47.2419 49.685 47.4173 50.6279 48.6454 50.6279C49.7638 50.6279 49.9173 49.685 49.9612 49.4437C50.0269 49.1367 50.0269 48.8516 50.0269 47.3604H51.5182V47.4043Z" fill="white"/>
<path d="M58 58.5H0V0.5H58V58.5ZM1.52919 56.949H56.449V2.02919H1.52919V56.949Z" fill="white"/>
</g>
<defs>
<clipPath id="clip0_225_2856">
<rect width="300" height="58" fill="white" transform="translate(0 0.5)"/>
</clipPath>
</defs>
</svg>
