<svg width="300" height="59" viewBox="0 0 300 59" fill="none" xmlns="http://www.w3.org/2000/svg">
<g clip-path="url(#clip0_449_6085)">
<path d="M76.386 26V8.18H80.478C81.2847 8.18 81.9813 8.268 82.568 8.444C83.1693 8.62 83.668 8.89133 84.064 9.258C84.46 9.62467 84.7533 10.094 84.944 10.666C85.1347 11.2233 85.23 11.8833 85.23 12.646C85.23 13.3793 85.1347 14.0173 84.944 14.56C84.768 15.088 84.4893 15.506 84.108 15.814C83.7413 16.122 83.2647 16.32 82.678 16.408C83.3967 16.5693 83.976 16.848 84.416 17.244C84.856 17.6253 85.1787 18.124 85.384 18.74C85.604 19.3413 85.714 20.0673 85.714 20.918C85.714 21.6807 85.626 22.3773 85.45 23.008C85.274 23.6387 84.9953 24.174 84.614 24.614C84.2473 25.054 83.7707 25.3987 83.184 25.648C82.612 25.8827 81.93 26 81.138 26H76.386ZM78.872 24.218H80.544C81.6587 24.218 82.3993 23.9613 82.766 23.448C83.1473 22.92 83.338 22.0767 83.338 20.918C83.338 20.17 83.2353 19.5467 83.03 19.048C82.8393 18.5347 82.524 18.1533 82.084 17.904C81.6587 17.64 81.0793 17.508 80.346 17.508H78.872V24.218ZM78.872 15.616H80.346C81.05 15.616 81.6 15.5207 81.996 15.33C82.392 15.1247 82.6707 14.802 82.832 14.362C82.9933 13.922 83.074 13.35 83.074 12.646C83.074 11.8247 82.9493 11.2307 82.7 10.864C82.4507 10.4973 82.062 10.27 81.534 10.182C81.006 10.0793 80.3167 10.028 79.466 10.028H78.872V15.616ZM91.2231 26.176C90.2844 26.176 89.5438 25.9853 89.0011 25.604C88.4584 25.2227 88.0698 24.68 87.8351 23.976C87.6151 23.272 87.5051 22.4433 87.5051 21.49V17.794C87.5051 16.8407 87.6151 16.012 87.8351 15.308C88.0698 14.604 88.4584 14.0613 89.0011 13.68C89.5438 13.2987 90.2844 13.108 91.2231 13.108C92.1618 13.108 92.8951 13.2987 93.4231 13.68C93.9658 14.0613 94.3471 14.604 94.5671 15.308C94.8018 16.012 94.9191 16.8407 94.9191 17.794V21.49C94.9191 22.4433 94.8018 23.272 94.5671 23.976C94.3471 24.68 93.9658 25.2227 93.4231 25.604C92.8951 25.9853 92.1618 26.176 91.2231 26.176ZM91.2231 24.438C91.6778 24.438 91.9931 24.306 92.1691 24.042C92.3598 23.778 92.4698 23.4333 92.4991 23.008C92.5431 22.568 92.5651 22.1133 92.5651 21.644V17.662C92.5651 17.178 92.5431 16.7233 92.4991 16.298C92.4698 15.8727 92.3598 15.528 92.1691 15.264C91.9931 14.9853 91.6778 14.846 91.2231 14.846C90.7684 14.846 90.4458 14.9853 90.2551 15.264C90.0644 15.528 89.9471 15.8727 89.9031 16.298C89.8738 16.7233 89.8591 17.178 89.8591 17.662V21.644C89.8591 22.1133 89.8738 22.568 89.9031 23.008C89.9471 23.4333 90.0644 23.778 90.2551 24.042C90.4458 24.306 90.7684 24.438 91.2231 24.438ZM97.2248 26V13.284H99.5788V26H97.2248ZM95.3108 12.03L97.2028 8.18H99.6008L101.515 12.03H99.7328L98.3908 9.368L97.0708 12.03H95.3108ZM105.379 26.176C104.719 26.176 104.183 26.0513 103.773 25.802C103.377 25.5527 103.083 25.2007 102.893 24.746C102.717 24.2913 102.629 23.756 102.629 23.14V14.846H101.287V13.284H102.629V9.566H104.983V13.284H107.029V14.846H104.983V22.986C104.983 23.4847 105.063 23.844 105.225 24.064C105.386 24.2693 105.694 24.372 106.149 24.372C106.266 24.372 106.398 24.3647 106.545 24.35C106.706 24.3353 106.86 24.3207 107.007 24.306V26.044C106.713 26.088 106.442 26.1173 106.193 26.132C105.943 26.1613 105.672 26.176 105.379 26.176ZM112.278 26.176C111.281 26.176 110.511 25.9853 109.968 25.604C109.426 25.208 109.044 24.636 108.824 23.888C108.619 23.1253 108.516 22.194 108.516 21.094V18.19C108.516 17.0607 108.626 16.122 108.846 15.374C109.066 14.626 109.448 14.0613 109.99 13.68C110.548 13.2987 111.31 13.108 112.278 13.108C113.349 13.108 114.134 13.328 114.632 13.768C115.146 14.208 115.483 14.846 115.644 15.682C115.806 16.5033 115.886 17.4933 115.886 18.652V19.686H110.87V22.238C110.87 22.7513 110.914 23.1693 111.002 23.492C111.105 23.8147 111.259 24.0567 111.464 24.218C111.684 24.3647 111.963 24.438 112.3 24.438C112.652 24.438 112.916 24.3573 113.092 24.196C113.283 24.02 113.408 23.778 113.466 23.47C113.54 23.1473 113.576 22.7733 113.576 22.348V21.578H115.864V22.062C115.864 23.338 115.593 24.3427 115.05 25.076C114.508 25.8093 113.584 26.176 112.278 26.176ZM110.87 18.41H113.576V17.266C113.576 16.738 113.547 16.298 113.488 15.946C113.43 15.5793 113.305 15.308 113.114 15.132C112.938 14.9413 112.652 14.846 112.256 14.846C111.875 14.846 111.582 14.934 111.376 15.11C111.186 15.286 111.054 15.5867 110.98 16.012C110.907 16.4227 110.87 16.9947 110.87 17.728V18.41ZM124.959 26.176C124.461 26.176 124.021 26.0367 123.639 25.758C123.258 25.4647 122.957 25.098 122.737 24.658C122.517 24.2033 122.407 23.7267 122.407 23.228C122.407 22.436 122.539 21.7687 122.803 21.226C123.067 20.6833 123.427 20.2287 123.881 19.862C124.351 19.4807 124.886 19.1507 125.487 18.872C126.103 18.5933 126.749 18.322 127.423 18.058V17.156C127.423 16.6427 127.394 16.2173 127.335 15.88C127.277 15.5427 127.152 15.2933 126.961 15.132C126.785 14.956 126.514 14.868 126.147 14.868C125.825 14.868 125.561 14.9413 125.355 15.088C125.165 15.2347 125.025 15.4473 124.937 15.726C124.849 15.99 124.805 16.3053 124.805 16.672V17.31L122.473 17.222C122.503 15.814 122.825 14.78 123.441 14.12C124.057 13.4453 125.011 13.108 126.301 13.108C127.563 13.108 128.457 13.4527 128.985 14.142C129.513 14.8313 129.777 15.8287 129.777 17.134V22.942C129.777 23.338 129.785 23.7193 129.799 24.086C129.829 24.4527 129.858 24.7973 129.887 25.12C129.931 25.428 129.968 25.7213 129.997 26H127.841C127.797 25.7653 127.739 25.472 127.665 25.12C127.607 24.7533 127.563 24.4233 127.533 24.13C127.387 24.6287 127.101 25.098 126.675 25.538C126.265 25.9633 125.693 26.176 124.959 26.176ZM125.883 24.152C126.118 24.152 126.338 24.086 126.543 23.954C126.749 23.822 126.932 23.6753 127.093 23.514C127.255 23.338 127.365 23.1987 127.423 23.096V19.488C127.057 19.6933 126.712 19.8987 126.389 20.104C126.067 20.3093 125.781 20.5293 125.531 20.764C125.297 20.984 125.106 21.2407 124.959 21.534C124.827 21.8127 124.761 22.1353 124.761 22.502C124.761 23.0153 124.857 23.4187 125.047 23.712C125.238 24.0053 125.517 24.152 125.883 24.152ZM125.751 12.228L123.309 7.872H125.663L126.917 12.228H125.751ZM140.573 26.176C139.634 26.176 138.893 25.9853 138.351 25.604C137.808 25.2227 137.419 24.68 137.185 23.976C136.965 23.272 136.855 22.4433 136.855 21.49V17.794C136.855 16.8407 136.965 16.012 137.185 15.308C137.419 14.604 137.808 14.0613 138.351 13.68C138.893 13.2987 139.634 13.108 140.573 13.108C141.511 13.108 142.245 13.2987 142.773 13.68C143.315 14.0613 143.697 14.604 143.917 15.308C144.151 16.012 144.269 16.8407 144.269 17.794V21.49C144.269 22.4433 144.151 23.272 143.917 23.976C143.697 24.68 143.315 25.2227 142.773 25.604C142.245 25.9853 141.511 26.176 140.573 26.176ZM140.573 24.438C141.027 24.438 141.343 24.306 141.519 24.042C141.709 23.778 141.819 23.4333 141.849 23.008C141.893 22.568 141.915 22.1133 141.915 21.644V17.662C141.915 17.178 141.893 16.7233 141.849 16.298C141.819 15.8727 141.709 15.528 141.519 15.264C141.343 14.9853 141.027 14.846 140.573 14.846C140.118 14.846 139.795 14.9853 139.605 15.264C139.414 15.528 139.297 15.8727 139.253 16.298C139.223 16.7233 139.209 17.178 139.209 17.662V21.644C139.209 22.1133 139.223 22.568 139.253 23.008C139.297 23.4333 139.414 23.778 139.605 24.042C139.795 24.306 140.118 24.438 140.573 24.438ZM148.246 26.176C147.748 26.176 147.359 26.044 147.08 25.78C146.802 25.516 146.604 25.186 146.486 24.79C146.384 24.394 146.332 23.9907 146.332 23.58V13.284H148.686V22.876C148.686 23.3307 148.752 23.69 148.884 23.954C149.016 24.2033 149.288 24.328 149.698 24.328C149.962 24.328 150.234 24.2547 150.512 24.108C150.806 23.9467 151.084 23.756 151.348 23.536V13.284H153.702V26H151.348V24.746C150.938 25.142 150.468 25.4793 149.94 25.758C149.427 26.0367 148.862 26.176 148.246 26.176ZM159.498 26.176C158.838 26.176 158.303 26.0513 157.892 25.802C157.496 25.5527 157.203 25.2007 157.012 24.746C156.836 24.2913 156.748 23.756 156.748 23.14V14.846H155.406V13.284H156.748V9.566H159.102V13.284H161.148V14.846H159.102V22.986C159.102 23.4847 159.183 23.844 159.344 24.064C159.505 24.2693 159.813 24.372 160.268 24.372C160.385 24.372 160.517 24.3647 160.664 24.35C160.825 24.3353 160.979 24.3207 161.126 24.306V26.044C160.833 26.088 160.561 26.1173 160.312 26.132C160.063 26.1613 159.791 26.176 159.498 26.176ZM163.031 26V13.284H165.385V26H163.031ZM163.031 11.392V8.928H165.385V11.392H163.031ZM168.125 26V8.18H170.479V26H168.125ZM175.88 26.176C174.839 26.176 174.003 25.8533 173.372 25.208C172.741 24.548 172.382 23.6827 172.294 22.612L174.252 22.018C174.369 22.8247 174.567 23.4333 174.846 23.844C175.125 24.24 175.535 24.438 176.078 24.438C176.503 24.438 176.826 24.3207 177.046 24.086C177.266 23.8367 177.376 23.5067 177.376 23.096C177.376 22.7293 177.295 22.3993 177.134 22.106C176.973 21.8127 176.709 21.512 176.342 21.204L174.164 19.334C173.724 18.9527 173.35 18.5273 173.042 18.058C172.749 17.5887 172.602 16.98 172.602 16.232C172.602 15.5573 172.734 14.9927 172.998 14.538C173.277 14.0687 173.658 13.7167 174.142 13.482C174.641 13.2327 175.22 13.108 175.88 13.108C176.936 13.108 177.743 13.438 178.3 14.098C178.857 14.7433 179.18 15.528 179.268 16.452L177.596 17.046C177.537 16.606 177.449 16.2247 177.332 15.902C177.215 15.5647 177.046 15.308 176.826 15.132C176.606 14.9413 176.32 14.846 175.968 14.846C175.587 14.846 175.279 14.978 175.044 15.242C174.824 15.4913 174.714 15.792 174.714 16.144C174.714 16.364 174.758 16.584 174.846 16.804C174.949 17.0093 175.117 17.2147 175.352 17.42L177.596 19.488C177.904 19.7667 178.19 20.0673 178.454 20.39C178.733 20.7127 178.96 21.0793 179.136 21.49C179.312 21.9007 179.4 22.3773 179.4 22.92C179.4 23.6387 179.253 24.24 178.96 24.724C178.667 25.208 178.256 25.5747 177.728 25.824C177.2 26.0587 176.584 26.176 175.88 26.176ZM189.708 26.176C188.711 26.176 187.941 25.9853 187.398 25.604C186.855 25.208 186.474 24.636 186.254 23.888C186.049 23.1253 185.946 22.194 185.946 21.094V18.19C185.946 17.0607 186.056 16.122 186.276 15.374C186.496 14.626 186.877 14.0613 187.42 13.68C187.977 13.2987 188.74 13.108 189.708 13.108C190.779 13.108 191.563 13.328 192.062 13.768C192.575 14.208 192.913 14.846 193.074 15.682C193.235 16.5033 193.316 17.4933 193.316 18.652V19.686H188.3V22.238C188.3 22.7513 188.344 23.1693 188.432 23.492C188.535 23.8147 188.689 24.0567 188.894 24.218C189.114 24.3647 189.393 24.438 189.73 24.438C190.082 24.438 190.346 24.3573 190.522 24.196C190.713 24.02 190.837 23.778 190.896 23.47C190.969 23.1473 191.006 22.7733 191.006 22.348V21.578H193.294V22.062C193.294 23.338 193.023 24.3427 192.48 25.076C191.937 25.8093 191.013 26.176 189.708 26.176ZM188.3 18.41H191.006V17.266C191.006 16.738 190.977 16.298 190.918 15.946C190.859 15.5793 190.735 15.308 190.544 15.132C190.368 14.9413 190.082 14.846 189.686 14.846C189.305 14.846 189.011 14.934 188.806 15.11C188.615 15.286 188.483 15.5867 188.41 16.012C188.337 16.4227 188.3 16.9947 188.3 17.728V18.41ZM195.448 26V13.284H197.802V14.538C198.227 14.142 198.696 13.8047 199.21 13.526C199.723 13.2473 200.288 13.108 200.904 13.108C201.417 13.108 201.806 13.24 202.07 13.504C202.348 13.768 202.539 14.098 202.642 14.494C202.759 14.89 202.818 15.2933 202.818 15.704V26H200.464V16.386C200.464 15.9313 200.398 15.5793 200.266 15.33C200.134 15.0807 199.862 14.956 199.452 14.956C199.188 14.956 198.909 15.0367 198.616 15.198C198.337 15.3447 198.066 15.528 197.802 15.748V26H195.448ZM210.143 26V13.284H212.321V14.494C212.746 14.01 213.216 13.6507 213.729 13.416C214.242 13.1813 214.77 13.064 215.313 13.064C215.782 13.064 216.2 13.1813 216.567 13.416C216.948 13.6507 217.22 14.0687 217.381 14.67C217.836 14.1127 218.327 13.7093 218.855 13.46C219.398 13.196 219.962 13.064 220.549 13.064C220.96 13.064 221.334 13.1667 221.671 13.372C222.008 13.5627 222.28 13.878 222.485 14.318C222.69 14.7433 222.793 15.308 222.793 16.012V26H220.637V16.166C220.637 15.55 220.534 15.1393 220.329 14.934C220.138 14.714 219.874 14.604 219.537 14.604C219.214 14.604 218.877 14.6993 218.525 14.89C218.173 15.066 217.85 15.3153 217.557 15.638C217.557 15.6967 217.557 15.7553 217.557 15.814C217.557 15.8727 217.557 15.9387 217.557 16.012V26H215.401V16.166C215.401 15.55 215.298 15.1393 215.093 14.934C214.902 14.714 214.638 14.604 214.301 14.604C213.978 14.604 213.641 14.6993 213.289 14.89C212.952 15.066 212.629 15.3153 212.321 15.638V26H210.143ZM227.01 26.176C226.512 26.176 226.072 26.0367 225.69 25.758C225.309 25.4647 225.008 25.098 224.788 24.658C224.568 24.2033 224.458 23.7267 224.458 23.228C224.458 22.436 224.59 21.7687 224.854 21.226C225.118 20.6833 225.478 20.2287 225.932 19.862C226.402 19.4807 226.937 19.1507 227.538 18.872C228.154 18.5933 228.8 18.322 229.474 18.058V17.156C229.474 16.6427 229.445 16.2173 229.386 15.88C229.328 15.5427 229.203 15.2933 229.012 15.132C228.836 14.956 228.565 14.868 228.198 14.868C227.876 14.868 227.612 14.9413 227.406 15.088C227.216 15.2347 227.076 15.4473 226.988 15.726C226.9 15.99 226.856 16.3053 226.856 16.672V17.31L224.524 17.222C224.554 15.814 224.876 14.78 225.492 14.12C226.108 13.4453 227.062 13.108 228.352 13.108C229.614 13.108 230.508 13.4527 231.036 14.142C231.564 14.8313 231.828 15.8287 231.828 17.134V22.942C231.828 23.338 231.836 23.7193 231.85 24.086C231.88 24.4527 231.909 24.7973 231.938 25.12C231.982 25.428 232.019 25.7213 232.048 26H229.892C229.848 25.7653 229.79 25.472 229.716 25.12C229.658 24.7533 229.614 24.4233 229.584 24.13C229.438 24.6287 229.152 25.098 228.726 25.538C228.316 25.9633 227.744 26.176 227.01 26.176ZM227.934 24.152C228.169 24.152 228.389 24.086 228.594 23.954C228.8 23.822 228.983 23.6753 229.144 23.514C229.306 23.338 229.416 23.1987 229.474 23.096V19.488C229.108 19.6933 228.763 19.8987 228.44 20.104C228.118 20.3093 227.832 20.5293 227.582 20.764C227.348 20.984 227.157 21.2407 227.01 21.534C226.878 21.8127 226.812 22.1353 226.812 22.502C226.812 23.0153 226.908 23.4187 227.098 23.712C227.289 24.0053 227.568 24.152 227.934 24.152ZM237.465 26.176C236.805 26.176 236.269 26.0513 235.859 25.802C235.463 25.5527 235.169 25.2007 234.979 24.746C234.803 24.2913 234.715 23.756 234.715 23.14V14.846H233.373V13.284H234.715V9.566H237.069V13.284H239.115V14.846H237.069V22.986C237.069 23.4847 237.149 23.844 237.311 24.064C237.472 24.2693 237.78 24.372 238.235 24.372C238.352 24.372 238.484 24.3647 238.631 24.35C238.792 24.3353 238.946 24.3207 239.093 24.306V26.044C238.799 26.088 238.528 26.1173 238.279 26.132C238.029 26.1613 237.758 26.176 237.465 26.176ZM240.998 26V13.284H243.352V26H240.998ZM240.998 11.392V8.928H243.352V11.392H240.998ZM249.392 26.176C248.394 26.176 247.624 25.9853 247.082 25.604C246.539 25.208 246.158 24.636 245.938 23.888C245.732 23.1253 245.63 22.194 245.63 21.094V18.19C245.63 17.0607 245.74 16.122 245.96 15.374C246.18 14.626 246.561 14.0613 247.104 13.68C247.661 13.2987 248.424 13.108 249.392 13.108C250.462 13.108 251.247 13.328 251.746 13.768C252.259 14.208 252.596 14.846 252.758 15.682C252.919 16.5033 253 17.4933 253 18.652V19.686H247.984V22.238C247.984 22.7513 248.028 23.1693 248.116 23.492C248.218 23.8147 248.372 24.0567 248.578 24.218C248.798 24.3647 249.076 24.438 249.414 24.438C249.766 24.438 250.03 24.3573 250.206 24.196C250.396 24.02 250.521 23.778 250.58 23.47C250.653 23.1473 250.69 22.7733 250.69 22.348V21.578H252.978V22.062C252.978 23.338 252.706 24.3427 252.164 25.076C251.621 25.8093 250.697 26.176 249.392 26.176ZM247.984 18.41H250.69V17.266C250.69 16.738 250.66 16.298 250.602 15.946C250.543 15.5793 250.418 15.308 250.228 15.132C250.052 14.9413 249.766 14.846 249.37 14.846C248.988 14.846 248.695 14.934 248.49 15.11C248.299 15.286 248.167 15.5867 248.094 16.012C248.02 16.4227 247.984 16.9947 247.984 17.728V18.41ZM248.776 12.228L246.334 7.872H248.688L249.942 12.228H248.776ZM255.197 26V13.284H257.551V15.088C258.021 14.3107 258.49 13.79 258.959 13.526C259.429 13.262 259.898 13.13 260.367 13.13C260.426 13.13 260.477 13.13 260.521 13.13C260.58 13.13 260.653 13.1373 260.741 13.152V15.748C260.565 15.6747 260.36 15.616 260.125 15.572C259.905 15.5133 259.678 15.484 259.443 15.484C259.077 15.484 258.739 15.572 258.431 15.748C258.138 15.9093 257.845 16.232 257.551 16.716V26H255.197ZM265.655 26.176C264.658 26.176 263.888 25.9853 263.345 25.604C262.803 25.208 262.421 24.636 262.201 23.888C261.996 23.1253 261.893 22.194 261.893 21.094V18.19C261.893 17.0607 262.003 16.122 262.223 15.374C262.443 14.626 262.825 14.0613 263.367 13.68C263.925 13.2987 264.687 13.108 265.655 13.108C266.726 13.108 267.511 13.328 268.009 13.768C268.523 14.208 268.86 14.846 269.021 15.682C269.183 16.5033 269.263 17.4933 269.263 18.652V19.686H264.247V22.238C264.247 22.7513 264.291 23.1693 264.379 23.492C264.482 23.8147 264.636 24.0567 264.841 24.218C265.061 24.3647 265.34 24.438 265.677 24.438C266.029 24.438 266.293 24.3573 266.469 24.196C266.66 24.02 266.785 23.778 266.843 23.47C266.917 23.1473 266.953 22.7733 266.953 22.348V21.578H269.241V22.062C269.241 23.338 268.97 24.3427 268.427 25.076C267.885 25.8093 266.961 26.176 265.655 26.176ZM264.247 18.41H266.953V17.266C266.953 16.738 266.924 16.298 266.865 15.946C266.807 15.5793 266.682 15.308 266.491 15.132C266.315 14.9413 266.029 14.846 265.633 14.846C265.252 14.846 264.959 14.934 264.753 15.11C264.563 15.286 264.431 15.5867 264.357 16.012C264.284 16.4227 264.247 16.9947 264.247 17.728V18.41ZM279.37 26.176C278.3 26.176 277.5 25.7873 276.972 25.01C276.444 24.218 276.18 22.8833 276.18 21.006V18.542C276.18 17.574 276.261 16.6793 276.422 15.858C276.584 15.022 276.884 14.3547 277.324 13.856C277.779 13.3573 278.439 13.108 279.304 13.108C279.73 13.108 280.118 13.2033 280.47 13.394C280.822 13.5847 281.138 13.8193 281.416 14.098V8.18H283.77V26H281.416V25.186C281.138 25.4793 280.83 25.7213 280.492 25.912C280.17 26.088 279.796 26.176 279.37 26.176ZM279.964 24.328C280.184 24.328 280.419 24.2913 280.668 24.218C280.918 24.13 281.167 24.0053 281.416 23.844V15.506C281.211 15.3593 280.984 15.2347 280.734 15.132C280.485 15.0147 280.214 14.956 279.92 14.956C279.378 14.956 279.011 15.22 278.82 15.748C278.63 16.2613 278.534 16.8847 278.534 17.618V21.204C278.534 21.7907 278.564 22.326 278.622 22.81C278.696 23.2793 278.835 23.6533 279.04 23.932C279.246 24.196 279.554 24.328 279.964 24.328ZM289.675 26.176C288.677 26.176 287.907 25.9853 287.365 25.604C286.822 25.208 286.441 24.636 286.221 23.888C286.015 23.1253 285.913 22.194 285.913 21.094V18.19C285.913 17.0607 286.023 16.122 286.243 15.374C286.463 14.626 286.844 14.0613 287.387 13.68C287.944 13.2987 288.707 13.108 289.675 13.108C290.745 13.108 291.53 13.328 292.029 13.768C292.542 14.208 292.879 14.846 293.041 15.682C293.202 16.5033 293.283 17.4933 293.283 18.652V19.686H288.267V22.238C288.267 22.7513 288.311 23.1693 288.399 23.492C288.501 23.8147 288.655 24.0567 288.861 24.218C289.081 24.3647 289.359 24.438 289.697 24.438C290.049 24.438 290.313 24.3573 290.489 24.196C290.679 24.02 290.804 23.778 290.863 23.47C290.936 23.1473 290.973 22.7733 290.973 22.348V21.578H293.261V22.062C293.261 23.338 292.989 24.3427 292.447 25.076C291.904 25.8093 290.98 26.176 289.675 26.176ZM288.267 18.41H290.973V17.266C290.973 16.738 290.943 16.298 290.885 15.946C290.826 15.5793 290.701 15.308 290.511 15.132C290.335 14.9413 290.049 14.846 289.653 14.846C289.271 14.846 288.978 14.934 288.773 15.11C288.582 15.286 288.45 15.5867 288.377 16.012C288.303 16.4227 288.267 16.9947 288.267 17.728V18.41ZM76.188 52V39.284H78.542V40.538C78.9673 40.142 79.4367 39.8047 79.95 39.526C80.4633 39.2473 81.028 39.108 81.644 39.108C82.1573 39.108 82.546 39.24 82.81 39.504C83.0887 39.768 83.2793 40.098 83.382 40.494C83.4993 40.89 83.558 41.2933 83.558 41.704V52H81.204V42.386C81.204 41.9313 81.138 41.5793 81.006 41.33C80.874 41.0807 80.6027 40.956 80.192 40.956C79.928 40.956 79.6493 41.0367 79.356 41.198C79.0773 41.3447 78.806 41.528 78.542 41.748V52H76.188ZM87.682 52.176C87.1833 52.176 86.7946 52.044 86.516 51.78C86.2373 51.516 86.0393 51.186 85.922 50.79C85.8193 50.394 85.768 49.9907 85.768 49.58V39.284H88.122V48.876C88.122 49.3307 88.188 49.69 88.32 49.954C88.452 50.2033 88.7233 50.328 89.134 50.328C89.398 50.328 89.6693 50.2547 89.948 50.108C90.2413 49.9467 90.52 49.756 90.784 49.536V39.284H93.138V52H90.784V50.746C90.3733 51.142 89.904 51.4793 89.376 51.758C88.8626 52.0367 88.298 52.176 87.682 52.176ZM95.5454 52V39.284H97.7234V40.494C98.1488 40.01 98.6181 39.6507 99.1314 39.416C99.6448 39.1813 100.173 39.064 100.715 39.064C101.185 39.064 101.603 39.1813 101.969 39.416C102.351 39.6507 102.622 40.0687 102.783 40.67C103.238 40.1127 103.729 39.7093 104.257 39.46C104.8 39.196 105.365 39.064 105.951 39.064C106.362 39.064 106.736 39.1667 107.073 39.372C107.411 39.5627 107.682 39.878 107.887 40.318C108.093 40.7433 108.195 41.308 108.195 42.012V52H106.039V42.166C106.039 41.55 105.937 41.1393 105.731 40.934C105.541 40.714 105.277 40.604 104.939 40.604C104.617 40.604 104.279 40.6993 103.927 40.89C103.575 41.066 103.253 41.3153 102.959 41.638C102.959 41.6967 102.959 41.7553 102.959 41.814C102.959 41.8727 102.959 41.9387 102.959 42.012V52H100.803V42.166C100.803 41.55 100.701 41.1393 100.495 40.934C100.305 40.714 100.041 40.604 99.7034 40.604C99.3808 40.604 99.0434 40.6993 98.6914 40.89C98.3541 41.066 98.0314 41.3153 97.7234 41.638V52H95.5454ZM114.019 52.176C113.021 52.176 112.251 51.9853 111.709 51.604C111.166 51.208 110.785 50.636 110.565 49.888C110.359 49.1253 110.257 48.194 110.257 47.094V44.19C110.257 43.0607 110.367 42.122 110.587 41.374C110.807 40.626 111.188 40.0613 111.731 39.68C112.288 39.2987 113.051 39.108 114.019 39.108C115.089 39.108 115.874 39.328 116.373 39.768C116.886 40.208 117.223 40.846 117.385 41.682C117.546 42.5033 117.627 43.4933 117.627 44.652V45.686H112.611V48.238C112.611 48.7513 112.655 49.1693 112.743 49.492C112.845 49.8147 112.999 50.0567 113.205 50.218C113.425 50.3647 113.703 50.438 114.041 50.438C114.393 50.438 114.657 50.3573 114.833 50.196C115.023 50.02 115.148 49.778 115.207 49.47C115.28 49.1473 115.317 48.7733 115.317 48.348V47.578H117.605V48.062C117.605 49.338 117.333 50.3427 116.791 51.076C116.248 51.8093 115.324 52.176 114.019 52.176ZM112.611 44.41H115.317V43.266C115.317 42.738 115.287 42.298 115.229 41.946C115.17 41.5793 115.045 41.308 114.855 41.132C114.679 40.9413 114.393 40.846 113.997 40.846C113.615 40.846 113.322 40.934 113.117 41.11C112.926 41.286 112.794 41.5867 112.721 42.012C112.647 42.4227 112.611 42.9947 112.611 43.728V44.41ZM113.337 38.228L114.635 33.872H116.989L114.525 38.228H113.337ZM119.824 52V39.284H122.178V41.088C122.648 40.3107 123.117 39.79 123.586 39.526C124.056 39.262 124.525 39.13 124.994 39.13C125.053 39.13 125.104 39.13 125.148 39.13C125.207 39.13 125.28 39.1373 125.368 39.152V41.748C125.192 41.6747 124.987 41.616 124.752 41.572C124.532 41.5133 124.305 41.484 124.07 41.484C123.704 41.484 123.366 41.572 123.058 41.748C122.765 41.9093 122.472 42.232 122.178 42.716V52H119.824ZM126.981 52V39.284H129.335V52H126.981ZM126.981 37.392V34.928H129.335V37.392H126.981ZM136.87 56.18V51.186C136.591 51.4793 136.283 51.7213 135.946 51.912C135.623 52.088 135.249 52.176 134.824 52.176C133.753 52.176 132.954 51.7873 132.426 51.01C131.898 50.218 131.634 48.8833 131.634 47.006V44.542C131.634 43.574 131.715 42.6793 131.876 41.858C132.037 41.022 132.338 40.3547 132.778 39.856C133.233 39.3573 133.893 39.108 134.758 39.108C135.183 39.108 135.572 39.2033 135.924 39.394C136.276 39.5847 136.591 39.8193 136.87 40.098V39.284H139.224V56.18H136.87ZM135.418 50.328C135.638 50.328 135.873 50.2913 136.122 50.218C136.386 50.13 136.635 50.0053 136.87 49.844V41.506C136.665 41.3593 136.437 41.2347 136.188 41.132C135.939 41.0147 135.667 40.956 135.374 40.956C134.831 40.956 134.465 41.22 134.274 41.748C134.083 42.2613 133.988 42.8847 133.988 43.618V47.204C133.988 47.7907 134.017 48.326 134.076 48.81C134.149 49.2793 134.289 49.6533 134.494 49.932C134.699 50.196 135.007 50.328 135.418 50.328ZM143.434 52.176C142.935 52.176 142.547 52.044 142.268 51.78C141.989 51.516 141.791 51.186 141.674 50.79C141.571 50.394 141.52 49.9907 141.52 49.58V39.284H143.874V48.876C143.874 49.3307 143.94 49.69 144.072 49.954C144.204 50.2033 144.475 50.328 144.886 50.328C145.15 50.328 145.421 50.2547 145.7 50.108C145.993 49.9467 146.272 49.756 146.536 49.536V39.284H148.89V52H146.536V50.746C146.125 51.142 145.656 51.4793 145.128 51.758C144.615 52.0367 144.05 52.176 143.434 52.176ZM154.817 52.176C153.82 52.176 153.05 51.9853 152.507 51.604C151.965 51.208 151.583 50.636 151.363 49.888C151.158 49.1253 151.055 48.194 151.055 47.094V44.19C151.055 43.0607 151.165 42.122 151.385 41.374C151.605 40.626 151.987 40.0613 152.529 39.68C153.087 39.2987 153.849 39.108 154.817 39.108C155.888 39.108 156.673 39.328 157.171 39.768C157.685 40.208 158.022 40.846 158.183 41.682C158.345 42.5033 158.425 43.4933 158.425 44.652V45.686H153.409V48.238C153.409 48.7513 153.453 49.1693 153.541 49.492C153.644 49.8147 153.798 50.0567 154.003 50.218C154.223 50.3647 154.502 50.438 154.839 50.438C155.191 50.438 155.455 50.3573 155.631 50.196C155.822 50.02 155.947 49.778 156.005 49.47C156.079 49.1473 156.115 48.7733 156.115 48.348V47.578H158.403V48.062C158.403 49.338 158.132 50.3427 157.589 51.076C157.047 51.8093 156.123 52.176 154.817 52.176ZM153.409 44.41H156.115V43.266C156.115 42.738 156.086 42.298 156.027 41.946C155.969 41.5793 155.844 41.308 155.653 41.132C155.477 40.9413 155.191 40.846 154.795 40.846C154.414 40.846 154.121 40.934 153.915 41.11C153.725 41.286 153.593 41.5867 153.519 42.012C153.446 42.4227 153.409 42.9947 153.409 43.728V44.41ZM169.104 52.176C168.107 52.176 167.337 51.9853 166.794 51.604C166.252 51.208 165.87 50.636 165.65 49.888C165.445 49.1253 165.342 48.194 165.342 47.094V44.19C165.342 43.0607 165.452 42.122 165.672 41.374C165.892 40.626 166.274 40.0613 166.816 39.68C167.374 39.2987 168.136 39.108 169.104 39.108C170.175 39.108 170.96 39.328 171.458 39.768C171.972 40.208 172.309 40.846 172.47 41.682C172.632 42.5033 172.712 43.4933 172.712 44.652V45.686H167.696V48.238C167.696 48.7513 167.74 49.1693 167.828 49.492C167.931 49.8147 168.085 50.0567 168.29 50.218C168.51 50.3647 168.789 50.438 169.126 50.438C169.478 50.438 169.742 50.3573 169.918 50.196C170.109 50.02 170.234 49.778 170.292 49.47C170.366 49.1473 170.402 48.7733 170.402 48.348V47.578H172.69V48.062C172.69 49.338 172.419 50.3427 171.876 51.076C171.334 51.8093 170.41 52.176 169.104 52.176ZM167.696 44.41H170.402V43.266C170.402 42.738 170.373 42.298 170.314 41.946C170.256 41.5793 170.131 41.308 169.94 41.132C169.764 40.9413 169.478 40.846 169.082 40.846C168.701 40.846 168.408 40.934 168.202 41.11C168.012 41.286 167.88 41.5867 167.806 42.012C167.733 42.4227 167.696 42.9947 167.696 43.728V44.41ZM178.232 52.176C177.572 52.176 177.037 52.0513 176.626 51.802C176.23 51.5527 175.937 51.2007 175.746 50.746C175.57 50.2913 175.482 49.756 175.482 49.14V40.846H174.14V39.284H175.482V35.566H177.836V39.284H179.882V40.846H177.836V48.986C177.836 49.4847 177.917 49.844 178.078 50.064C178.24 50.2693 178.548 50.372 179.002 50.372C179.12 50.372 179.252 50.3647 179.398 50.35C179.56 50.3353 179.714 50.3207 179.86 50.306V52.044C179.567 52.088 179.296 52.1173 179.046 52.132C178.797 52.1613 178.526 52.176 178.232 52.176ZM189.587 52.176C188.517 52.176 187.717 51.7873 187.189 51.01C186.661 50.218 186.397 48.8833 186.397 47.006V44.542C186.397 43.574 186.478 42.6793 186.639 41.858C186.801 41.022 187.101 40.3547 187.541 39.856C187.996 39.3573 188.656 39.108 189.521 39.108C189.947 39.108 190.335 39.2033 190.687 39.394C191.039 39.5847 191.355 39.8193 191.633 40.098V34.18H193.987V52H191.633V51.186C191.355 51.4793 191.047 51.7213 190.709 51.912C190.387 52.088 190.013 52.176 189.587 52.176ZM190.181 50.328C190.401 50.328 190.636 50.2913 190.885 50.218C191.135 50.13 191.384 50.0053 191.633 49.844V41.506C191.428 41.3593 191.201 41.2347 190.951 41.132C190.702 41.0147 190.431 40.956 190.137 40.956C189.595 40.956 189.228 41.22 189.037 41.748C188.847 42.2613 188.751 42.8847 188.751 43.618V47.204C188.751 47.7907 188.781 48.326 188.839 48.81C188.913 49.2793 189.052 49.6533 189.257 49.932C189.463 50.196 189.771 50.328 190.181 50.328ZM199.892 52.176C198.894 52.176 198.124 51.9853 197.582 51.604C197.039 51.208 196.658 50.636 196.438 49.888C196.232 49.1253 196.13 48.194 196.13 47.094V44.19C196.13 43.0607 196.24 42.122 196.46 41.374C196.68 40.626 197.061 40.0613 197.604 39.68C198.161 39.2987 198.924 39.108 199.892 39.108C200.962 39.108 201.747 39.328 202.246 39.768C202.759 40.208 203.096 40.846 203.258 41.682C203.419 42.5033 203.5 43.4933 203.5 44.652V45.686H198.484V48.238C198.484 48.7513 198.528 49.1693 198.616 49.492C198.718 49.8147 198.872 50.0567 199.078 50.218C199.298 50.3647 199.576 50.438 199.914 50.438C200.266 50.438 200.53 50.3573 200.706 50.196C200.896 50.02 201.021 49.778 201.08 49.47C201.153 49.1473 201.19 48.7733 201.19 48.348V47.578H203.478V48.062C203.478 49.338 203.206 50.3427 202.664 51.076C202.121 51.8093 201.197 52.176 199.892 52.176ZM198.484 44.41H201.19V43.266C201.19 42.738 201.16 42.298 201.102 41.946C201.043 41.5793 200.918 41.308 200.728 41.132C200.552 40.9413 200.266 40.846 199.87 40.846C199.488 40.846 199.195 40.934 198.99 41.11C198.799 41.286 198.667 41.5867 198.594 42.012C198.52 42.4227 198.484 42.9947 198.484 43.728V44.41ZM213.607 52.176C212.565 52.176 211.729 51.8533 211.099 51.208C210.468 50.548 210.109 49.6827 210.021 48.612L211.979 48.018C212.096 48.8247 212.294 49.4333 212.573 49.844C212.851 50.24 213.262 50.438 213.805 50.438C214.23 50.438 214.553 50.3207 214.773 50.086C214.993 49.8367 215.103 49.5067 215.103 49.096C215.103 48.7293 215.022 48.3993 214.861 48.106C214.699 47.8127 214.435 47.512 214.069 47.204L211.891 45.334C211.451 44.9527 211.077 44.5273 210.769 44.058C210.475 43.5887 210.329 42.98 210.329 42.232C210.329 41.5573 210.461 40.9927 210.725 40.538C211.003 40.0687 211.385 39.7167 211.869 39.482C212.367 39.2327 212.947 39.108 213.607 39.108C214.663 39.108 215.469 39.438 216.027 40.098C216.584 40.7433 216.907 41.528 216.995 42.452L215.323 43.046C215.264 42.606 215.176 42.2247 215.059 41.902C214.941 41.5647 214.773 41.308 214.553 41.132C214.333 40.9413 214.047 40.846 213.695 40.846C213.313 40.846 213.005 40.978 212.771 41.242C212.551 41.4913 212.441 41.792 212.441 42.144C212.441 42.364 212.485 42.584 212.573 42.804C212.675 43.0093 212.844 43.2147 213.079 43.42L215.323 45.488C215.631 45.7667 215.917 46.0673 216.181 46.39C216.459 46.7127 216.687 47.0793 216.863 47.49C217.039 47.9007 217.127 48.3773 217.127 48.92C217.127 49.6387 216.98 50.24 216.687 50.724C216.393 51.208 215.983 51.5747 215.455 51.824C214.927 52.0587 214.311 52.176 213.607 52.176ZM222.407 52.176C221.41 52.176 220.64 51.9853 220.097 51.604C219.555 51.208 219.173 50.636 218.953 49.888C218.748 49.1253 218.645 48.194 218.645 47.094V44.19C218.645 43.0607 218.755 42.122 218.975 41.374C219.195 40.626 219.577 40.0613 220.119 39.68C220.677 39.2987 221.439 39.108 222.407 39.108C223.478 39.108 224.263 39.328 224.761 39.768C225.275 40.208 225.612 40.846 225.773 41.682C225.935 42.5033 226.015 43.4933 226.015 44.652V45.686H220.999V48.238C220.999 48.7513 221.043 49.1693 221.131 49.492C221.234 49.8147 221.388 50.0567 221.593 50.218C221.813 50.3647 222.092 50.438 222.429 50.438C222.781 50.438 223.045 50.3573 223.221 50.196C223.412 50.02 223.537 49.778 223.595 49.47C223.669 49.1473 223.705 48.7733 223.705 48.348V47.578H225.993V48.062C225.993 49.338 225.722 50.3427 225.179 51.076C224.637 51.8093 223.713 52.176 222.407 52.176ZM220.999 44.41H223.705V43.266C223.705 42.738 223.676 42.298 223.617 41.946C223.559 41.5793 223.434 41.308 223.243 41.132C223.067 40.9413 222.781 40.846 222.385 40.846C222.004 40.846 221.711 40.934 221.505 41.11C221.315 41.286 221.183 41.5867 221.109 42.012C221.036 42.4227 220.999 42.9947 220.999 43.728V44.41ZM228.213 52V39.284H230.567V41.088C231.036 40.3107 231.506 39.79 231.975 39.526C232.444 39.262 232.914 39.13 233.383 39.13C233.442 39.13 233.493 39.13 233.537 39.13C233.596 39.13 233.669 39.1373 233.757 39.152V41.748C233.581 41.6747 233.376 41.616 233.141 41.572C232.921 41.5133 232.694 41.484 232.459 41.484C232.092 41.484 231.755 41.572 231.447 41.748C231.154 41.9093 230.86 42.232 230.567 42.716V52H228.213ZM236.865 52L234.357 39.284H236.733L238.295 49.514L239.879 39.284H242.167L239.747 52H236.865ZM243.834 52V39.284H246.188V52H243.834ZM243.834 37.392V34.928H246.188V37.392H243.834ZM252.184 52.176C251.142 52.176 250.35 51.9707 249.808 51.56C249.28 51.1347 248.92 50.5407 248.73 49.778C248.554 49.0153 248.466 48.128 248.466 47.116V44.19C248.466 43.1193 248.561 42.21 248.752 41.462C248.942 40.6993 249.302 40.12 249.83 39.724C250.372 39.3133 251.157 39.108 252.184 39.108C253.108 39.108 253.819 39.262 254.318 39.57C254.831 39.8633 255.183 40.3107 255.374 40.912C255.564 41.4987 255.66 42.232 255.66 43.112V43.86H253.526V43.09C253.526 42.5327 253.489 42.0927 253.416 41.77C253.342 41.4473 253.21 41.2127 253.02 41.066C252.829 40.9193 252.558 40.846 252.206 40.846C251.824 40.846 251.531 40.934 251.326 41.11C251.12 41.286 250.981 41.5867 250.908 42.012C250.849 42.4227 250.82 42.9873 250.82 43.706V47.71C250.82 48.7953 250.922 49.5213 251.128 49.888C251.333 50.2547 251.7 50.438 252.228 50.438C252.624 50.438 252.91 50.35 253.086 50.174C253.276 49.9833 253.394 49.7193 253.438 49.382C253.496 49.0447 253.526 48.6633 253.526 48.238V47.204H255.66V48.084C255.66 48.9347 255.557 49.668 255.352 50.284C255.161 50.9 254.809 51.3693 254.296 51.692C253.797 52.0147 253.093 52.176 252.184 52.176ZM261.165 52.176C260.168 52.176 259.398 51.9853 258.855 51.604C258.312 51.208 257.931 50.636 257.711 49.888C257.506 49.1253 257.403 48.194 257.403 47.094V44.19C257.403 43.0607 257.513 42.122 257.733 41.374C257.953 40.626 258.334 40.0613 258.877 39.68C259.434 39.2987 260.197 39.108 261.165 39.108C262.236 39.108 263.02 39.328 263.519 39.768C264.032 40.208 264.37 40.846 264.531 41.682C264.692 42.5033 264.773 43.4933 264.773 44.652V45.686H259.757V48.238C259.757 48.7513 259.801 49.1693 259.889 49.492C259.992 49.8147 260.146 50.0567 260.351 50.218C260.571 50.3647 260.85 50.438 261.187 50.438C261.539 50.438 261.803 50.3573 261.979 50.196C262.17 50.02 262.294 49.778 262.353 49.47C262.426 49.1473 262.463 48.7733 262.463 48.348V47.578H264.751V48.062C264.751 49.338 264.48 50.3427 263.937 51.076C263.394 51.8093 262.47 52.176 261.165 52.176ZM259.757 44.41H262.463V43.266C262.463 42.738 262.434 42.298 262.375 41.946C262.316 41.5793 262.192 41.308 262.001 41.132C261.825 40.9413 261.539 40.846 261.143 40.846C260.762 40.846 260.468 40.934 260.263 41.11C260.072 41.286 259.94 41.5867 259.867 42.012C259.794 42.4227 259.757 42.9947 259.757 43.728V44.41ZM269.853 52.176C268.811 52.176 267.975 51.8533 267.345 51.208C266.714 50.548 266.355 49.6827 266.267 48.612L268.225 48.018C268.342 48.8247 268.54 49.4333 268.819 49.844C269.097 50.24 269.508 50.438 270.051 50.438C270.476 50.438 270.799 50.3207 271.019 50.086C271.239 49.8367 271.349 49.5067 271.349 49.096C271.349 48.7293 271.268 48.3993 271.107 48.106C270.945 47.8127 270.681 47.512 270.315 47.204L268.137 45.334C267.697 44.9527 267.323 44.5273 267.015 44.058C266.721 43.5887 266.575 42.98 266.575 42.232C266.575 41.5573 266.707 40.9927 266.971 40.538C267.249 40.0687 267.631 39.7167 268.115 39.482C268.613 39.2327 269.193 39.108 269.853 39.108C270.909 39.108 271.715 39.438 272.273 40.098C272.83 40.7433 273.153 41.528 273.241 42.452L271.569 43.046C271.51 42.606 271.422 42.2247 271.305 41.902C271.187 41.5647 271.019 41.308 270.799 41.132C270.579 40.9413 270.293 40.846 269.941 40.846C269.559 40.846 269.251 40.978 269.017 41.242C268.797 41.4913 268.687 41.792 268.687 42.144C268.687 42.364 268.731 42.584 268.819 42.804C268.921 43.0093 269.09 43.2147 269.325 43.42L271.569 45.488C271.877 45.7667 272.163 46.0673 272.427 46.39C272.705 46.7127 272.933 47.0793 273.109 47.49C273.285 47.9007 273.373 48.3773 273.373 48.92C273.373 49.6387 273.226 50.24 272.933 50.724C272.639 51.208 272.229 51.5747 271.701 51.824C271.173 52.0587 270.557 52.176 269.853 52.176Z" fill="black"/>
<path d="M57.2355 1.26465H0.764648V57.7355H57.2355V1.26465Z" fill="black"/>
<path d="M46.7496 16.9716L46.6622 14.4812C46.6622 14.2409 46.8588 14.2409 47.2958 14.3283L49.3055 14.7215L49.0434 14.0661C48.956 13.804 48.9342 13.651 49.1308 13.4763L51.5119 11.532L51.075 11.2699C50.944 11.1825 50.944 11.0733 51.0095 10.8548L51.4464 9.413L50.2886 9.6533C49.9609 9.71883 49.8735 9.6533 49.808 9.47853L49.4803 8.82317L48.3443 10.1121C48.1477 10.3524 47.8637 10.1994 47.9511 9.84991L48.4973 7.18475L47.6671 7.66535C47.5361 7.75273 47.3831 7.77458 47.3176 7.62166L46.4219 5.83032L45.5263 7.62166C45.4389 7.77458 45.3078 7.75273 45.1767 7.66535L44.3466 7.18475L44.8927 9.84991C44.9801 10.1994 44.6961 10.3524 44.4995 10.1121L43.3635 8.82317L43.0359 9.47853C42.9485 9.6533 42.8611 9.74068 42.5553 9.6533L41.3974 9.413L41.8344 10.8548C41.8999 11.0733 41.8999 11.1825 41.7688 11.2699L41.3319 11.532L43.7131 13.4763C43.9097 13.651 43.8878 13.8258 43.8005 14.0661L43.5383 14.7215L45.5481 14.3283C45.985 14.2409 46.1816 14.2409 46.1816 14.4812L46.0942 16.9716H46.7496Z" fill="white"/>
<path d="M31.3428 31.6421H32.834C32.834 32.9579 32.834 33.0895 32.8559 33.3088C32.8779 33.6158 32.9875 34.8 34.3472 34.8C34.8515 34.8 35.9261 34.6026 35.9261 33.243C35.9261 32.2561 35.4875 31.7517 34.7858 31.028L33.0972 29.2956C31.9129 28.0895 31.6717 27.3219 31.6717 26.1816C31.6717 25.5017 31.6717 23.2649 34.5665 23.2649C35.2024 23.2649 36.277 23.3745 36.8472 24.2956C37.198 24.8877 37.198 25.3044 37.198 27.1245H35.7945C35.7507 25.9403 35.7507 25.8088 35.7287 25.5895C35.6849 25.3702 35.5314 24.5807 34.4349 24.5807C33.141 24.5807 33.141 25.6991 33.141 26.0719C33.141 27.0149 33.47 27.3877 34.3472 28.3088L35.9261 29.9535C36.9568 31.05 37.4173 31.6859 37.4173 33.1114C37.4173 35.7649 35.334 36.0938 34.4129 36.0938C33.2068 36.0938 32.5708 35.6991 32.3296 35.4798C31.5401 34.8658 31.3647 33.9228 31.3647 33.0017V31.6421H31.3428Z" fill="white"/>
<path d="M44.3468 35.9403H42.1539L39.7416 25.1508L39.9609 35.9403H38.4258V23.4841H40.531L43.053 34.4052L42.8337 23.4841H44.3249V35.9403H44.3468Z" fill="white"/>
<path d="M51.5182 31.5542C51.5182 33.2208 51.4962 33.6594 51.3866 34.1419C51.2331 34.8656 50.8164 36.1156 48.5796 36.1156C46.6717 36.1156 45.9041 34.9971 45.7068 33.8349C45.6629 33.484 45.5752 32.9577 45.5752 29.8436C45.5752 26.5542 45.6191 26.1814 45.7068 25.6331C45.8164 25.0849 46.1234 23.2866 48.6892 23.2866C49.7199 23.2866 50.9919 23.7252 51.2989 25.0849C51.4305 25.677 51.4305 26.4226 51.4305 27.3875H49.9831V26.4445C49.9831 25.5893 49.9612 24.5805 48.6892 24.5805C47.3734 24.5805 47.2638 25.6331 47.198 26.1156C47.0884 27.0147 47.0884 28.9007 47.0884 29.8436C47.0884 30.6112 47.1322 33.1331 47.198 33.6156C47.2419 33.8349 47.4173 34.7778 48.6454 34.7778C49.7638 34.7778 49.9173 33.8349 49.9612 33.5936C50.0269 33.2866 50.0269 33.0015 50.0269 31.5103H51.5182V31.5542Z" fill="white"/>
<path d="M37.2858 47.4051C37.2858 49.0718 37.2638 49.5104 37.1542 49.9928C37.0007 50.7165 36.584 51.9665 34.3472 51.9665C32.4393 51.9665 31.6717 50.8481 31.4744 49.6858C31.4305 49.3349 31.3428 48.8086 31.3428 45.6946C31.3428 42.4051 31.3866 42.0323 31.4744 41.4841C31.584 40.9358 31.891 39.1376 34.4568 39.1376C35.4875 39.1376 36.7594 39.5762 37.0665 40.9358C37.198 41.5279 37.198 42.2735 37.198 43.2384H35.7507V42.2955C35.7507 41.4402 35.7287 40.4314 34.4568 40.4314C33.141 40.4314 33.0314 41.4841 32.9656 41.9665C32.8559 42.8656 32.8559 44.7516 32.8559 45.6946C32.8559 46.4621 32.8998 48.9841 32.9656 49.4665C33.0094 49.6858 33.1849 50.6288 34.413 50.6288C35.5314 50.6288 35.6849 49.6858 35.7287 49.4446C35.7945 49.1376 35.7945 48.8525 35.7945 47.3613H37.2858V47.4051Z" fill="white"/>
<path d="M38.5566 51.813V39.3568H40.9031C42.1093 39.3568 43.2277 39.3568 43.9733 40.2998C44.5654 41.0235 44.6093 41.6814 44.6093 44.6858C44.6093 45.3656 44.6093 46.1551 44.5654 47.8437C44.5435 49.0498 44.5216 49.9489 44.061 50.6726C43.3593 51.791 42.197 51.791 40.8593 51.791H38.5566V51.813ZM40.1137 50.4533H41.1224C42.1093 50.4533 42.811 50.3656 42.9865 49.2472C43.0742 48.6551 43.0961 46.9226 43.0961 46.2647C43.0961 45.1244 43.0961 44.6858 43.0742 43.4796C43.0523 42.12 43.0303 41.4621 42.4821 41.0673C42.0873 40.8042 41.7365 40.8042 40.0917 40.8042V50.4533H40.1137Z" fill="white"/>
<path d="M45.5967 47.4928H47.0879C47.0879 48.8086 47.0879 48.9402 47.1098 49.1595C47.1318 49.4665 47.2414 50.6507 48.6011 50.6507C49.1054 50.6507 50.18 50.4533 50.18 49.0937C50.18 48.1068 49.7414 47.6024 49.0397 46.8788L47.3511 45.1463C46.1669 43.9402 45.9256 43.1726 45.9256 42.0323C45.9256 41.3524 45.9256 39.1156 48.8204 39.1156C49.4563 39.1156 50.5309 39.2252 51.1011 40.1463C51.4519 40.7384 51.4519 41.1551 51.4519 42.9752H50.0923C50.0484 41.791 50.0484 41.6595 50.0265 41.4402C49.9826 41.2209 49.8291 40.4314 48.7326 40.4314C47.4388 40.4314 47.4388 41.5498 47.4388 41.9226C47.4388 42.8656 47.7677 43.2384 48.6449 44.1595L50.2239 45.8042C51.2546 46.9007 51.7151 47.5366 51.7151 48.9621C51.7151 51.6156 49.6318 51.9445 48.7107 51.9445C47.5046 51.9445 46.8686 51.5498 46.6274 51.3305C45.8379 50.7165 45.6625 49.7735 45.6625 48.8524V47.4928H45.5967Z" fill="white"/>
<path d="M58 58.5H0V0.5H58V58.5ZM1.52919 56.949H56.449V2.02919H1.52919V56.949Z" fill="white"/>
</g>
<defs>
<clipPath id="clip0_449_6085">
<rect width="300" height="58" fill="white" transform="translate(0 0.5)"/>
</clipPath>
</defs>
</svg>
