<svg width="300" height="59" viewBox="0 0 300 59" fill="none" xmlns="http://www.w3.org/2000/svg">
<g clip-path="url(#clip0_449_6085)">
<path d="M76.386 26V8.18H78.872V24.218H83.426V26H76.386ZM88.3877 26.176C87.3904 26.176 86.6204 25.9853 86.0777 25.604C85.535 25.208 85.1537 24.636 84.9337 23.888C84.7284 23.1253 84.6257 22.194 84.6257 21.094V18.19C84.6257 17.0607 84.7357 16.122 84.9557 15.374C85.1757 14.626 85.557 14.0613 86.0997 13.68C86.657 13.2987 87.4197 13.108 88.3877 13.108C89.4584 13.108 90.243 13.328 90.7417 13.768C91.255 14.208 91.5924 14.846 91.7537 15.682C91.915 16.5033 91.9957 17.4933 91.9957 18.652V19.686H86.9797V22.238C86.9797 22.7513 87.0237 23.1693 87.1117 23.492C87.2144 23.8147 87.3684 24.0567 87.5737 24.218C87.7937 24.3647 88.0724 24.438 88.4097 24.438C88.7617 24.438 89.0257 24.3573 89.2017 24.196C89.3924 24.02 89.517 23.778 89.5757 23.47C89.649 23.1473 89.6857 22.7733 89.6857 22.348V21.578H91.9737V22.062C91.9737 23.338 91.7024 24.3427 91.1597 25.076C90.617 25.8093 89.693 26.176 88.3877 26.176ZM86.9797 18.41H89.6857V17.266C89.6857 16.738 89.6564 16.298 89.5977 15.946C89.539 15.5793 89.4144 15.308 89.2237 15.132C89.0477 14.9413 88.7617 14.846 88.3657 14.846C87.9844 14.846 87.691 14.934 87.4857 15.11C87.295 15.286 87.163 15.5867 87.0897 16.012C87.0164 16.4227 86.9797 16.9947 86.9797 17.728V18.41ZM97.0755 26.176C96.0341 26.176 95.1981 25.8533 94.5675 25.208C93.9368 24.548 93.5775 23.6827 93.4895 22.612L95.4475 22.018C95.5648 22.8247 95.7628 23.4333 96.0415 23.844C96.3201 24.24 96.7308 24.438 97.2735 24.438C97.6988 24.438 98.0215 24.3207 98.2415 24.086C98.4615 23.8367 98.5715 23.5067 98.5715 23.096C98.5715 22.7293 98.4908 22.3993 98.3295 22.106C98.1681 21.8127 97.9041 21.512 97.5375 21.204L95.3595 19.334C94.9195 18.9527 94.5455 18.5273 94.2375 18.058C93.9441 17.5887 93.7975 16.98 93.7975 16.232C93.7975 15.5573 93.9295 14.9927 94.1935 14.538C94.4721 14.0687 94.8535 13.7167 95.3375 13.482C95.8361 13.2327 96.4155 13.108 97.0755 13.108C98.1315 13.108 98.9381 13.438 99.4955 14.098C100.053 14.7433 100.375 15.528 100.463 16.452L98.7915 17.046C98.7328 16.606 98.6448 16.2247 98.5275 15.902C98.4101 15.5647 98.2415 15.308 98.0215 15.132C97.8015 14.9413 97.5155 14.846 97.1635 14.846C96.7821 14.846 96.4741 14.978 96.2395 15.242C96.0195 15.4913 95.9095 15.792 95.9095 16.144C95.9095 16.364 95.9535 16.584 96.0415 16.804C96.1441 17.0093 96.3128 17.2147 96.5475 17.42L98.7915 19.488C99.0995 19.7667 99.3855 20.0673 99.6495 20.39C99.9281 20.7127 100.155 21.0793 100.331 21.49C100.507 21.9007 100.595 22.3773 100.595 22.92C100.595 23.6387 100.449 24.24 100.155 24.724C99.8621 25.208 99.4515 25.5747 98.9235 25.824C98.3955 26.0587 97.7795 26.176 97.0755 26.176ZM110.881 26.176C109.943 26.176 109.202 25.9853 108.659 25.604C108.117 25.2227 107.728 24.68 107.493 23.976C107.273 23.272 107.163 22.4433 107.163 21.49V17.794C107.163 16.8407 107.273 16.012 107.493 15.308C107.728 14.604 108.117 14.0613 108.659 13.68C109.202 13.2987 109.943 13.108 110.881 13.108C111.82 13.108 112.553 13.2987 113.081 13.68C113.624 14.0613 114.005 14.604 114.225 15.308C114.46 16.012 114.577 16.8407 114.577 17.794V21.49C114.577 22.4433 114.46 23.272 114.225 23.976C114.005 24.68 113.624 25.2227 113.081 25.604C112.553 25.9853 111.82 26.176 110.881 26.176ZM110.881 24.438C111.336 24.438 111.651 24.306 111.827 24.042C112.018 23.778 112.128 23.4333 112.157 23.008C112.201 22.568 112.223 22.1133 112.223 21.644V17.662C112.223 17.178 112.201 16.7233 112.157 16.298C112.128 15.8727 112.018 15.528 111.827 15.264C111.651 14.9853 111.336 14.846 110.881 14.846C110.427 14.846 110.104 14.9853 109.913 15.264C109.723 15.528 109.605 15.8727 109.561 16.298C109.532 16.7233 109.517 17.178 109.517 17.662V21.644C109.517 22.1133 109.532 22.568 109.561 23.008C109.605 23.4333 109.723 23.778 109.913 24.042C110.104 24.306 110.427 24.438 110.881 24.438ZM118.555 26.176C118.056 26.176 117.668 26.044 117.389 25.78C117.11 25.516 116.912 25.186 116.795 24.79C116.692 24.394 116.641 23.9907 116.641 23.58V13.284H118.995V22.876C118.995 23.3307 119.061 23.69 119.193 23.954C119.325 24.2033 119.596 24.328 120.007 24.328C120.271 24.328 120.542 24.2547 120.821 24.108C121.114 23.9467 121.393 23.756 121.657 23.536V13.284H124.011V26H121.657V24.746C121.246 25.142 120.777 25.4793 120.249 25.758C119.736 26.0367 119.171 26.176 118.555 26.176ZM129.806 26.176C129.146 26.176 128.611 26.0513 128.2 25.802C127.804 25.5527 127.511 25.2007 127.32 24.746C127.144 24.2913 127.056 23.756 127.056 23.14V14.846H125.714V13.284H127.056V9.566H129.41V13.284H131.456V14.846H129.41V22.986C129.41 23.4847 129.491 23.844 129.652 24.064C129.814 24.2693 130.122 24.372 130.576 24.372C130.694 24.372 130.826 24.3647 130.972 24.35C131.134 24.3353 131.288 24.3207 131.434 24.306V26.044C131.141 26.088 130.87 26.1173 130.62 26.132C130.371 26.1613 130.1 26.176 129.806 26.176ZM133.34 26V13.284H135.694V26H133.34ZM133.34 11.392V8.928H135.694V11.392H133.34ZM138.433 26V8.18H140.787V26H138.433ZM146.189 26.176C145.147 26.176 144.311 25.8533 143.681 25.208C143.05 24.548 142.691 23.6827 142.603 22.612L144.561 22.018C144.678 22.8247 144.876 23.4333 145.155 23.844C145.433 24.24 145.844 24.438 146.387 24.438C146.812 24.438 147.135 24.3207 147.355 24.086C147.575 23.8367 147.685 23.5067 147.685 23.096C147.685 22.7293 147.604 22.3993 147.443 22.106C147.281 21.8127 147.017 21.512 146.651 21.204L144.473 19.334C144.033 18.9527 143.659 18.5273 143.351 18.058C143.057 17.5887 142.911 16.98 142.911 16.232C142.911 15.5573 143.043 14.9927 143.307 14.538C143.585 14.0687 143.967 13.7167 144.451 13.482C144.949 13.2327 145.529 13.108 146.189 13.108C147.245 13.108 148.051 13.438 148.609 14.098C149.166 14.7433 149.489 15.528 149.577 16.452L147.905 17.046C147.846 16.606 147.758 16.2247 147.641 15.902C147.523 15.5647 147.355 15.308 147.135 15.132C146.915 14.9413 146.629 14.846 146.277 14.846C145.895 14.846 145.587 14.978 145.353 15.242C145.133 15.4913 145.023 15.792 145.023 16.144C145.023 16.364 145.067 16.584 145.155 16.804C145.257 17.0093 145.426 17.2147 145.661 17.42L147.905 19.488C148.213 19.7667 148.499 20.0673 148.763 20.39C149.041 20.7127 149.269 21.0793 149.445 21.49C149.621 21.9007 149.709 22.3773 149.709 22.92C149.709 23.6387 149.562 24.24 149.269 24.724C148.975 25.208 148.565 25.5747 148.037 25.824C147.509 26.0587 146.893 26.176 146.189 26.176ZM159.445 26.176C158.374 26.176 157.575 25.7873 157.047 25.01C156.519 24.218 156.255 22.8833 156.255 21.006V18.542C156.255 17.574 156.335 16.6793 156.497 15.858C156.658 15.022 156.959 14.3547 157.399 13.856C157.853 13.3573 158.513 13.108 159.379 13.108C159.804 13.108 160.193 13.2033 160.545 13.394C160.897 13.5847 161.212 13.8193 161.491 14.098V8.18H163.845V26H161.491V25.186C161.212 25.4793 160.904 25.7213 160.567 25.912C160.244 26.088 159.87 26.176 159.445 26.176ZM160.039 24.328C160.259 24.328 160.493 24.2913 160.743 24.218C160.992 24.13 161.241 24.0053 161.491 23.844V15.506C161.285 15.3593 161.058 15.2347 160.809 15.132C160.559 15.0147 160.288 14.956 159.995 14.956C159.452 14.956 159.085 15.22 158.895 15.748C158.704 16.2613 158.609 16.8847 158.609 17.618V21.204C158.609 21.7907 158.638 22.326 158.697 22.81C158.77 23.2793 158.909 23.6533 159.115 23.932C159.32 24.196 159.628 24.328 160.039 24.328ZM168.055 26.176C167.556 26.176 167.168 26.044 166.889 25.78C166.61 25.516 166.412 25.186 166.295 24.79C166.192 24.394 166.141 23.9907 166.141 23.58V13.284H168.495V22.876C168.495 23.3307 168.561 23.69 168.693 23.954C168.825 24.2033 169.096 24.328 169.507 24.328C169.771 24.328 170.042 24.2547 170.321 24.108C170.614 23.9467 170.893 23.756 171.157 23.536V13.284H173.511V26H171.157V24.746C170.746 25.142 170.277 25.4793 169.749 25.758C169.236 26.0367 168.671 26.176 168.055 26.176ZM180.946 26V13.284H183.3V14.538C183.725 14.142 184.194 13.8047 184.708 13.526C185.221 13.2473 185.786 13.108 186.402 13.108C186.915 13.108 187.304 13.24 187.568 13.504C187.846 13.768 188.037 14.098 188.14 14.494C188.257 14.89 188.316 15.2933 188.316 15.704V26H185.962V16.386C185.962 15.9313 185.896 15.5793 185.764 15.33C185.632 15.0807 185.36 14.956 184.95 14.956C184.686 14.956 184.407 15.0367 184.114 15.198C183.835 15.3447 183.564 15.528 183.3 15.748V26H180.946ZM192.44 26.176C191.941 26.176 191.552 26.044 191.274 25.78C190.995 25.516 190.797 25.186 190.68 24.79C190.577 24.394 190.526 23.9907 190.526 23.58V13.284H192.88V22.876C192.88 23.3307 192.946 23.69 193.078 23.954C193.21 24.2033 193.481 24.328 193.892 24.328C194.156 24.328 194.427 24.2547 194.706 24.108C194.999 23.9467 195.278 23.756 195.542 23.536V13.284H197.896V26H195.542V24.746C195.131 25.142 194.662 25.4793 194.134 25.758C193.62 26.0367 193.056 26.176 192.44 26.176ZM200.303 26V13.284H202.481V14.494C202.907 14.01 203.376 13.6507 203.889 13.416C204.403 13.1813 204.931 13.064 205.473 13.064C205.943 13.064 206.361 13.1813 206.727 13.416C207.109 13.6507 207.38 14.0687 207.541 14.67C207.996 14.1127 208.487 13.7093 209.015 13.46C209.558 13.196 210.123 13.064 210.709 13.064C211.12 13.064 211.494 13.1667 211.831 13.372C212.169 13.5627 212.44 13.878 212.645 14.318C212.851 14.7433 212.953 15.308 212.953 16.012V26H210.797V16.166C210.797 15.55 210.695 15.1393 210.489 14.934C210.299 14.714 210.035 14.604 209.697 14.604C209.375 14.604 209.037 14.6993 208.685 14.89C208.333 15.066 208.011 15.3153 207.717 15.638C207.717 15.6967 207.717 15.7553 207.717 15.814C207.717 15.8727 207.717 15.9387 207.717 16.012V26H205.561V16.166C205.561 15.55 205.459 15.1393 205.253 14.934C205.063 14.714 204.799 14.604 204.461 14.604C204.139 14.604 203.801 14.6993 203.449 14.89C203.112 15.066 202.789 15.3153 202.481 15.638V26H200.303ZM218.776 26.176C217.779 26.176 217.009 25.9853 216.466 25.604C215.924 25.208 215.542 24.636 215.322 23.888C215.117 23.1253 215.014 22.194 215.014 21.094V18.19C215.014 17.0607 215.124 16.122 215.344 15.374C215.564 14.626 215.946 14.0613 216.488 13.68C217.046 13.2987 217.808 13.108 218.776 13.108C219.847 13.108 220.632 13.328 221.13 13.768C221.644 14.208 221.981 14.846 222.142 15.682C222.304 16.5033 222.384 17.4933 222.384 18.652V19.686H217.368V22.238C217.368 22.7513 217.412 23.1693 217.5 23.492C217.603 23.8147 217.757 24.0567 217.962 24.218C218.182 24.3647 218.461 24.438 218.798 24.438C219.15 24.438 219.414 24.3573 219.59 24.196C219.781 24.02 219.906 23.778 219.964 23.47C220.038 23.1473 220.074 22.7733 220.074 22.348V21.578H222.362V22.062C222.362 23.338 222.091 24.3427 221.548 25.076C221.006 25.8093 220.082 26.176 218.776 26.176ZM217.368 18.41H220.074V17.266C220.074 16.738 220.045 16.298 219.986 15.946C219.928 15.5793 219.803 15.308 219.612 15.132C219.436 14.9413 219.15 14.846 218.754 14.846C218.373 14.846 218.08 14.934 217.874 15.11C217.684 15.286 217.552 15.5867 217.478 16.012C217.405 16.4227 217.368 16.9947 217.368 17.728V18.41ZM218.094 12.228L219.392 7.872H221.746L219.282 12.228H218.094ZM224.582 26V13.284H226.936V15.088C227.405 14.3107 227.875 13.79 228.344 13.526C228.813 13.262 229.283 13.13 229.752 13.13C229.811 13.13 229.862 13.13 229.906 13.13C229.965 13.13 230.038 13.1373 230.126 13.152V15.748C229.95 15.6747 229.745 15.616 229.51 15.572C229.29 15.5133 229.063 15.484 228.828 15.484C228.461 15.484 228.124 15.572 227.816 15.748C227.523 15.9093 227.229 16.232 226.936 16.716V26H224.582ZM231.738 26V13.284H234.092V26H231.738ZM231.738 11.392V8.928H234.092V11.392H231.738ZM241.628 30.18V25.186C241.349 25.4793 241.041 25.7213 240.704 25.912C240.381 26.088 240.007 26.176 239.582 26.176C238.511 26.176 237.712 25.7873 237.184 25.01C236.656 24.218 236.392 22.8833 236.392 21.006V18.542C236.392 17.574 236.472 16.6793 236.634 15.858C236.795 15.022 237.096 14.3547 237.536 13.856C237.99 13.3573 238.65 13.108 239.516 13.108C239.941 13.108 240.33 13.2033 240.682 13.394C241.034 13.5847 241.349 13.8193 241.628 14.098V13.284H243.982V30.18H241.628ZM240.176 24.328C240.396 24.328 240.63 24.2913 240.88 24.218C241.144 24.13 241.393 24.0053 241.628 23.844V15.506C241.422 15.3593 241.195 15.2347 240.946 15.132C240.696 15.0147 240.425 14.956 240.132 14.956C239.589 14.956 239.222 15.22 239.032 15.748C238.841 16.2613 238.746 16.8847 238.746 17.618V21.204C238.746 21.7907 238.775 22.326 238.834 22.81C238.907 23.2793 239.046 23.6533 239.252 23.932C239.457 24.196 239.765 24.328 240.176 24.328ZM248.192 26.176C247.693 26.176 247.304 26.044 247.026 25.78C246.747 25.516 246.549 25.186 246.432 24.79C246.329 24.394 246.278 23.9907 246.278 23.58V13.284H248.632V22.876C248.632 23.3307 248.698 23.69 248.83 23.954C248.962 24.2033 249.233 24.328 249.644 24.328C249.908 24.328 250.179 24.2547 250.458 24.108C250.751 23.9467 251.03 23.756 251.294 23.536V13.284H253.648V26H251.294V24.746C250.883 25.142 250.414 25.4793 249.886 25.758C249.372 26.0367 248.808 26.176 248.192 26.176ZM259.575 26.176C258.578 26.176 257.808 25.9853 257.265 25.604C256.723 25.208 256.341 24.636 256.121 23.888C255.916 23.1253 255.813 22.194 255.813 21.094V18.19C255.813 17.0607 255.923 16.122 256.143 15.374C256.363 14.626 256.745 14.0613 257.287 13.68C257.845 13.2987 258.607 13.108 259.575 13.108C260.646 13.108 261.431 13.328 261.929 13.768C262.443 14.208 262.78 14.846 262.941 15.682C263.103 16.5033 263.183 17.4933 263.183 18.652V19.686H258.167V22.238C258.167 22.7513 258.211 23.1693 258.299 23.492C258.402 23.8147 258.556 24.0567 258.761 24.218C258.981 24.3647 259.26 24.438 259.597 24.438C259.949 24.438 260.213 24.3573 260.389 24.196C260.58 24.02 260.705 23.778 260.763 23.47C260.837 23.1473 260.873 22.7733 260.873 22.348V21.578H263.161V22.062C263.161 23.338 262.89 24.3427 262.347 25.076C261.805 25.8093 260.881 26.176 259.575 26.176ZM258.167 18.41H260.873V17.266C260.873 16.738 260.844 16.298 260.785 15.946C260.727 15.5793 260.602 15.308 260.411 15.132C260.235 14.9413 259.949 14.846 259.553 14.846C259.172 14.846 258.879 14.934 258.673 15.11C258.483 15.286 258.351 15.5867 258.277 16.012C258.204 16.4227 258.167 16.9947 258.167 17.728V18.41ZM268.263 26.176C267.222 26.176 266.386 25.8533 265.755 25.208C265.124 24.548 264.765 23.6827 264.677 22.612L266.635 22.018C266.752 22.8247 266.95 23.4333 267.229 23.844C267.508 24.24 267.918 24.438 268.461 24.438C268.886 24.438 269.209 24.3207 269.429 24.086C269.649 23.8367 269.759 23.5067 269.759 23.096C269.759 22.7293 269.678 22.3993 269.517 22.106C269.356 21.8127 269.092 21.512 268.725 21.204L266.547 19.334C266.107 18.9527 265.733 18.5273 265.425 18.058C265.132 17.5887 264.985 16.98 264.985 16.232C264.985 15.5573 265.117 14.9927 265.381 14.538C265.66 14.0687 266.041 13.7167 266.525 13.482C267.024 13.2327 267.603 13.108 268.263 13.108C269.319 13.108 270.126 13.438 270.683 14.098C271.24 14.7433 271.563 15.528 271.651 16.452L269.979 17.046C269.92 16.606 269.832 16.2247 269.715 15.902C269.598 15.5647 269.429 15.308 269.209 15.132C268.989 14.9413 268.703 14.846 268.351 14.846C267.97 14.846 267.662 14.978 267.427 15.242C267.207 15.4913 267.097 15.792 267.097 16.144C267.097 16.364 267.141 16.584 267.229 16.804C267.332 17.0093 267.5 17.2147 267.735 17.42L269.979 19.488C270.287 19.7667 270.573 20.0673 270.837 20.39C271.116 20.7127 271.343 21.0793 271.519 21.49C271.695 21.9007 271.783 22.3773 271.783 22.92C271.783 23.6387 271.636 24.24 271.343 24.724C271.05 25.208 270.639 25.5747 270.111 25.824C269.583 26.0587 268.967 26.176 268.263 26.176ZM282.091 26.176C281.093 26.176 280.323 25.9853 279.781 25.604C279.238 25.208 278.857 24.636 278.637 23.888C278.431 23.1253 278.329 22.194 278.329 21.094V18.19C278.329 17.0607 278.439 16.122 278.659 15.374C278.879 14.626 279.26 14.0613 279.803 13.68C280.36 13.2987 281.123 13.108 282.091 13.108C283.161 13.108 283.946 13.328 284.445 13.768C284.958 14.208 285.295 14.846 285.457 15.682C285.618 16.5033 285.699 17.4933 285.699 18.652V19.686H280.683V22.238C280.683 22.7513 280.727 23.1693 280.815 23.492C280.917 23.8147 281.071 24.0567 281.277 24.218C281.497 24.3647 281.775 24.438 282.113 24.438C282.465 24.438 282.729 24.3573 282.905 24.196C283.095 24.02 283.22 23.778 283.279 23.47C283.352 23.1473 283.389 22.7733 283.389 22.348V21.578H285.677V22.062C285.677 23.338 285.405 24.3427 284.863 25.076C284.32 25.8093 283.396 26.176 282.091 26.176ZM280.683 18.41H283.389V17.266C283.389 16.738 283.359 16.298 283.301 15.946C283.242 15.5793 283.117 15.308 282.927 15.132C282.751 14.9413 282.465 14.846 282.069 14.846C281.687 14.846 281.394 14.934 281.189 15.11C280.998 15.286 280.866 15.5867 280.793 16.012C280.719 16.4227 280.683 16.9947 280.683 17.728V18.41ZM291.219 26.176C290.559 26.176 290.023 26.0513 289.613 25.802C289.217 25.5527 288.923 25.2007 288.733 24.746C288.557 24.2913 288.469 23.756 288.469 23.14V14.846H287.127V13.284H288.469V9.566H290.823V13.284H292.869V14.846H290.823V22.986C290.823 23.4847 290.903 23.844 291.065 24.064C291.226 24.2693 291.534 24.372 291.989 24.372C292.106 24.372 292.238 24.3647 292.385 24.35C292.546 24.3353 292.7 24.3207 292.847 24.306V26.044C292.553 26.088 292.282 26.1173 292.033 26.132C291.783 26.1613 291.512 26.176 291.219 26.176ZM79.136 52.176C78.0653 52.176 77.266 51.7873 76.738 51.01C76.21 50.218 75.946 48.8833 75.946 47.006V44.542C75.946 43.574 76.0267 42.6793 76.188 41.858C76.3493 41.022 76.65 40.3547 77.09 39.856C77.5447 39.3573 78.2047 39.108 79.07 39.108C79.4953 39.108 79.884 39.2033 80.236 39.394C80.588 39.5847 80.9033 39.8193 81.182 40.098V34.18H83.536V52H81.182V51.186C80.9033 51.4793 80.5953 51.7213 80.258 51.912C79.9353 52.088 79.5613 52.176 79.136 52.176ZM79.73 50.328C79.95 50.328 80.1847 50.2913 80.434 50.218C80.6833 50.13 80.9327 50.0053 81.182 49.844V41.506C80.9767 41.3593 80.7493 41.2347 80.5 41.132C80.2507 41.0147 79.9793 40.956 79.686 40.956C79.1433 40.956 78.7767 41.22 78.586 41.748C78.3953 42.2613 78.3 42.8847 78.3 43.618V47.204C78.3 47.7907 78.3293 48.326 78.388 48.81C78.4613 49.2793 78.6007 49.6533 78.806 49.932C79.0113 50.196 79.3193 50.328 79.73 50.328ZM89.4404 52.176C88.4431 52.176 87.6731 51.9853 87.1304 51.604C86.5878 51.208 86.2064 50.636 85.9864 49.888C85.7811 49.1253 85.6784 48.194 85.6784 47.094V44.19C85.6784 43.0607 85.7884 42.122 86.0084 41.374C86.2284 40.626 86.6098 40.0613 87.1524 39.68C87.7098 39.2987 88.4724 39.108 89.4404 39.108C90.5111 39.108 91.2958 39.328 91.7944 39.768C92.3078 40.208 92.6451 40.846 92.8064 41.682C92.9678 42.5033 93.0484 43.4933 93.0484 44.652V45.686H88.0324V48.238C88.0324 48.7513 88.0764 49.1693 88.1644 49.492C88.2671 49.8147 88.4211 50.0567 88.6264 50.218C88.8464 50.3647 89.1251 50.438 89.4624 50.438C89.8144 50.438 90.0784 50.3573 90.2544 50.196C90.4451 50.02 90.5698 49.778 90.6284 49.47C90.7018 49.1473 90.7384 48.7733 90.7384 48.348V47.578H93.0264V48.062C93.0264 49.338 92.7551 50.3427 92.2124 51.076C91.6698 51.8093 90.7458 52.176 89.4404 52.176ZM88.0324 44.41H90.7384V43.266C90.7384 42.738 90.7091 42.298 90.6504 41.946C90.5918 41.5793 90.4671 41.308 90.2764 41.132C90.1004 40.9413 89.8144 40.846 89.4184 40.846C89.0371 40.846 88.7438 40.934 88.5384 41.11C88.3478 41.286 88.2158 41.5867 88.1424 42.012C88.0691 42.4227 88.0324 42.9947 88.0324 43.728V44.41ZM98.1282 52.176C97.0869 52.176 96.2509 51.8533 95.6202 51.208C94.9895 50.548 94.6302 49.6827 94.5422 48.612L96.5002 48.018C96.6175 48.8247 96.8155 49.4333 97.0942 49.844C97.3729 50.24 97.7835 50.438 98.3262 50.438C98.7515 50.438 99.0742 50.3207 99.2942 50.086C99.5142 49.8367 99.6242 49.5067 99.6242 49.096C99.6242 48.7293 99.5435 48.3993 99.3822 48.106C99.2209 47.8127 98.9569 47.512 98.5902 47.204L96.4122 45.334C95.9722 44.9527 95.5982 44.5273 95.2902 44.058C94.9969 43.5887 94.8502 42.98 94.8502 42.232C94.8502 41.5573 94.9822 40.9927 95.2462 40.538C95.5249 40.0687 95.9062 39.7167 96.3902 39.482C96.8889 39.2327 97.4682 39.108 98.1282 39.108C99.1842 39.108 99.9909 39.438 100.548 40.098C101.106 40.7433 101.428 41.528 101.516 42.452L99.8442 43.046C99.7855 42.606 99.6975 42.2247 99.5802 41.902C99.4629 41.5647 99.2942 41.308 99.0742 41.132C98.8542 40.9413 98.5682 40.846 98.2162 40.846C97.8349 40.846 97.5269 40.978 97.2922 41.242C97.0722 41.4913 96.9622 41.792 96.9622 42.144C96.9622 42.364 97.0062 42.584 97.0942 42.804C97.1969 43.0093 97.3655 43.2147 97.6002 43.42L99.8442 45.488C100.152 45.7667 100.438 46.0673 100.702 46.39C100.981 46.7127 101.208 47.0793 101.384 47.49C101.56 47.9007 101.648 48.3773 101.648 48.92C101.648 49.6387 101.502 50.24 101.208 50.724C100.915 51.208 100.504 51.5747 99.9762 51.824C99.4482 52.0587 98.8322 52.176 98.1282 52.176ZM111.384 52.176C110.343 52.176 109.507 51.8533 108.876 51.208C108.245 50.548 107.886 49.6827 107.798 48.612L109.756 48.018C109.873 48.8247 110.071 49.4333 110.35 49.844C110.629 50.24 111.039 50.438 111.582 50.438C112.007 50.438 112.33 50.3207 112.55 50.086C112.77 49.8367 112.88 49.5067 112.88 49.096C112.88 48.7293 112.799 48.3993 112.638 48.106C112.477 47.8127 112.213 47.512 111.846 47.204L109.668 45.334C109.228 44.9527 108.854 44.5273 108.546 44.058C108.253 43.5887 108.106 42.98 108.106 42.232C108.106 41.5573 108.238 40.9927 108.502 40.538C108.781 40.0687 109.162 39.7167 109.646 39.482C110.145 39.2327 110.724 39.108 111.384 39.108C112.44 39.108 113.247 39.438 113.804 40.098C114.361 40.7433 114.684 41.528 114.772 42.452L113.1 43.046C113.041 42.606 112.953 42.2247 112.836 41.902C112.719 41.5647 112.55 41.308 112.33 41.132C112.11 40.9413 111.824 40.846 111.472 40.846C111.091 40.846 110.783 40.978 110.548 41.242C110.328 41.4913 110.218 41.792 110.218 42.144C110.218 42.364 110.262 42.584 110.35 42.804C110.453 43.0093 110.621 43.2147 110.856 43.42L113.1 45.488C113.408 45.7667 113.694 46.0673 113.958 46.39C114.237 46.7127 114.464 47.0793 114.64 47.49C114.816 47.9007 114.904 48.3773 114.904 48.92C114.904 49.6387 114.757 50.24 114.464 50.724C114.171 51.208 113.76 51.5747 113.232 51.824C112.704 52.0587 112.088 52.176 111.384 52.176ZM120.185 52.176C119.187 52.176 118.417 51.9853 117.875 51.604C117.332 51.208 116.951 50.636 116.731 49.888C116.525 49.1253 116.423 48.194 116.423 47.094V44.19C116.423 43.0607 116.533 42.122 116.753 41.374C116.973 40.626 117.354 40.0613 117.897 39.68C118.454 39.2987 119.217 39.108 120.185 39.108C121.255 39.108 122.04 39.328 122.539 39.768C123.052 40.208 123.389 40.846 123.551 41.682C123.712 42.5033 123.793 43.4933 123.793 44.652V45.686H118.777V48.238C118.777 48.7513 118.821 49.1693 118.909 49.492C119.011 49.8147 119.165 50.0567 119.371 50.218C119.591 50.3647 119.869 50.438 120.207 50.438C120.559 50.438 120.823 50.3573 120.999 50.196C121.189 50.02 121.314 49.778 121.373 49.47C121.446 49.1473 121.483 48.7733 121.483 48.348V47.578H123.771V48.062C123.771 49.338 123.499 50.3427 122.957 51.076C122.414 51.8093 121.49 52.176 120.185 52.176ZM118.777 44.41H121.483V43.266C121.483 42.738 121.453 42.298 121.395 41.946C121.336 41.5793 121.211 41.308 121.021 41.132C120.845 40.9413 120.559 40.846 120.163 40.846C119.781 40.846 119.488 40.934 119.283 41.11C119.092 41.286 118.96 41.5867 118.887 42.012C118.813 42.4227 118.777 42.9947 118.777 43.728V44.41ZM125.99 52V39.284H128.344V41.088C128.814 40.3107 129.283 39.79 129.752 39.526C130.222 39.262 130.691 39.13 131.16 39.13C131.219 39.13 131.27 39.13 131.314 39.13C131.373 39.13 131.446 39.1373 131.534 39.152V41.748C131.358 41.6747 131.153 41.616 130.918 41.572C130.698 41.5133 130.471 41.484 130.236 41.484C129.87 41.484 129.532 41.572 129.224 41.748C128.931 41.9093 128.638 42.232 128.344 42.716V52H125.99ZM134.643 52L132.135 39.284H134.511L136.073 49.514L137.657 39.284H139.945L137.525 52H134.643ZM141.612 52V39.284H143.966V52H141.612ZM141.612 37.392V34.928H143.966V37.392H141.612ZM149.961 52.176C148.92 52.176 148.128 51.9707 147.585 51.56C147.057 51.1347 146.698 50.5407 146.507 49.778C146.331 49.0153 146.243 48.128 146.243 47.116V44.19C146.243 43.1193 146.338 42.21 146.529 41.462C146.72 40.6993 147.079 40.12 147.607 39.724C148.15 39.3133 148.934 39.108 149.961 39.108C150.885 39.108 151.596 39.262 152.095 39.57C152.608 39.8633 152.96 40.3107 153.151 40.912C153.342 41.4987 153.437 42.232 153.437 43.112V43.86H151.303V43.09C151.303 42.5327 151.266 42.0927 151.193 41.77C151.12 41.4473 150.988 41.2127 150.797 41.066C150.606 40.9193 150.335 40.846 149.983 40.846C149.602 40.846 149.308 40.934 149.103 41.11C148.898 41.286 148.758 41.5867 148.685 42.012C148.626 42.4227 148.597 42.9873 148.597 43.706V47.71C148.597 48.7953 148.7 49.5213 148.905 49.888C149.11 50.2547 149.477 50.438 150.005 50.438C150.401 50.438 150.687 50.35 150.863 50.174C151.054 49.9833 151.171 49.7193 151.215 49.382C151.274 49.0447 151.303 48.6633 151.303 48.238V47.204H153.437V48.084C153.437 48.9347 153.334 49.668 153.129 50.284C152.938 50.9 152.586 51.3693 152.073 51.692C151.574 52.0147 150.87 52.176 149.961 52.176ZM158.942 52.176C157.945 52.176 157.175 51.9853 156.632 51.604C156.09 51.208 155.708 50.636 155.488 49.888C155.283 49.1253 155.18 48.194 155.18 47.094V44.19C155.18 43.0607 155.29 42.122 155.51 41.374C155.73 40.626 156.112 40.0613 156.654 39.68C157.212 39.2987 157.974 39.108 158.942 39.108C160.013 39.108 160.798 39.328 161.296 39.768C161.81 40.208 162.147 40.846 162.308 41.682C162.47 42.5033 162.55 43.4933 162.55 44.652V45.686H157.534V48.238C157.534 48.7513 157.578 49.1693 157.666 49.492C157.769 49.8147 157.923 50.0567 158.128 50.218C158.348 50.3647 158.627 50.438 158.964 50.438C159.316 50.438 159.58 50.3573 159.756 50.196C159.947 50.02 160.072 49.778 160.13 49.47C160.204 49.1473 160.24 48.7733 160.24 48.348V47.578H162.528V48.062C162.528 49.338 162.257 50.3427 161.714 51.076C161.172 51.8093 160.248 52.176 158.942 52.176ZM157.534 44.41H160.24V43.266C160.24 42.738 160.211 42.298 160.152 41.946C160.094 41.5793 159.969 41.308 159.778 41.132C159.602 40.9413 159.316 40.846 158.92 40.846C158.539 40.846 158.246 40.934 158.04 41.11C157.85 41.286 157.718 41.5867 157.644 42.012C157.571 42.4227 157.534 42.9947 157.534 43.728V44.41ZM167.63 52.176C166.589 52.176 165.753 51.8533 165.122 51.208C164.491 50.548 164.132 49.6827 164.044 48.612L166.002 48.018C166.119 48.8247 166.317 49.4333 166.596 49.844C166.875 50.24 167.285 50.438 167.828 50.438C168.253 50.438 168.576 50.3207 168.796 50.086C169.016 49.8367 169.126 49.5067 169.126 49.096C169.126 48.7293 169.045 48.3993 168.884 48.106C168.723 47.8127 168.459 47.512 168.092 47.204L165.914 45.334C165.474 44.9527 165.1 44.5273 164.792 44.058C164.499 43.5887 164.352 42.98 164.352 42.232C164.352 41.5573 164.484 40.9927 164.748 40.538C165.027 40.0687 165.408 39.7167 165.892 39.482C166.391 39.2327 166.97 39.108 167.63 39.108C168.686 39.108 169.493 39.438 170.05 40.098C170.607 40.7433 170.93 41.528 171.018 42.452L169.346 43.046C169.287 42.606 169.199 42.2247 169.082 41.902C168.965 41.5647 168.796 41.308 168.576 41.132C168.356 40.9413 168.07 40.846 167.718 40.846C167.337 40.846 167.029 40.978 166.794 41.242C166.574 41.4913 166.464 41.792 166.464 42.144C166.464 42.364 166.508 42.584 166.596 42.804C166.699 43.0093 166.867 43.2147 167.102 43.42L169.346 45.488C169.654 45.7667 169.94 46.0673 170.204 46.39C170.483 46.7127 170.71 47.0793 170.886 47.49C171.062 47.9007 171.15 48.3773 171.15 48.92C171.15 49.6387 171.003 50.24 170.71 50.724C170.417 51.208 170.006 51.5747 169.478 51.824C168.95 52.0587 168.334 52.176 167.63 52.176Z" fill="black"/>
<path d="M57.2355 1.26465H0.764648V57.7355H57.2355V1.26465Z" fill="black"/>
<path d="M46.7496 16.9716L46.6622 14.4812C46.6622 14.2409 46.8588 14.2409 47.2958 14.3283L49.3055 14.7215L49.0434 14.0661C48.956 13.804 48.9342 13.651 49.1308 13.4763L51.5119 11.532L51.075 11.2699C50.944 11.1825 50.944 11.0733 51.0095 10.8548L51.4464 9.413L50.2886 9.6533C49.9609 9.71883 49.8735 9.6533 49.808 9.47853L49.4803 8.82317L48.3443 10.1121C48.1477 10.3524 47.8637 10.1994 47.9511 9.84991L48.4973 7.18475L47.6671 7.66535C47.5361 7.75273 47.3831 7.77458 47.3176 7.62166L46.4219 5.83032L45.5263 7.62166C45.4389 7.77458 45.3078 7.75273 45.1767 7.66535L44.3466 7.18475L44.8927 9.84991C44.9801 10.1994 44.6961 10.3524 44.4995 10.1121L43.3635 8.82317L43.0359 9.47853C42.9485 9.6533 42.8611 9.74068 42.5553 9.6533L41.3974 9.413L41.8344 10.8548C41.8999 11.0733 41.8999 11.1825 41.7688 11.2699L41.3319 11.532L43.7131 13.4763C43.9097 13.651 43.8878 13.8258 43.8005 14.0661L43.5383 14.7215L45.5481 14.3283C45.985 14.2409 46.1816 14.2409 46.1816 14.4812L46.0942 16.9716H46.7496Z" fill="white"/>
<path d="M31.3428 31.6421H32.834C32.834 32.9579 32.834 33.0895 32.8559 33.3088C32.8779 33.6158 32.9875 34.8 34.3472 34.8C34.8515 34.8 35.9261 34.6026 35.9261 33.243C35.9261 32.2561 35.4875 31.7517 34.7858 31.028L33.0972 29.2956C31.9129 28.0895 31.6717 27.3219 31.6717 26.1816C31.6717 25.5017 31.6717 23.2649 34.5665 23.2649C35.2024 23.2649 36.277 23.3745 36.8472 24.2956C37.198 24.8877 37.198 25.3044 37.198 27.1245H35.7945C35.7507 25.9403 35.7507 25.8088 35.7287 25.5895C35.6849 25.3702 35.5314 24.5807 34.4349 24.5807C33.141 24.5807 33.141 25.6991 33.141 26.0719C33.141 27.0149 33.47 27.3877 34.3472 28.3088L35.9261 29.9535C36.9568 31.05 37.4173 31.6859 37.4173 33.1114C37.4173 35.7649 35.334 36.0938 34.4129 36.0938C33.2068 36.0938 32.5708 35.6991 32.3296 35.4798C31.5401 34.8658 31.3647 33.9228 31.3647 33.0017V31.6421H31.3428Z" fill="white"/>
<path d="M44.3468 35.9403H42.1539L39.7416 25.1508L39.9609 35.9403H38.4258V23.4841H40.531L43.053 34.4052L42.8337 23.4841H44.3249V35.9403H44.3468Z" fill="white"/>
<path d="M51.5182 31.5542C51.5182 33.2208 51.4962 33.6594 51.3866 34.1419C51.2331 34.8656 50.8164 36.1156 48.5796 36.1156C46.6717 36.1156 45.9041 34.9971 45.7068 33.8349C45.6629 33.484 45.5752 32.9577 45.5752 29.8436C45.5752 26.5542 45.6191 26.1814 45.7068 25.6331C45.8164 25.0849 46.1234 23.2866 48.6892 23.2866C49.7199 23.2866 50.9919 23.7252 51.2989 25.0849C51.4305 25.677 51.4305 26.4226 51.4305 27.3875H49.9831V26.4445C49.9831 25.5893 49.9612 24.5805 48.6892 24.5805C47.3734 24.5805 47.2638 25.6331 47.198 26.1156C47.0884 27.0147 47.0884 28.9007 47.0884 29.8436C47.0884 30.6112 47.1322 33.1331 47.198 33.6156C47.2419 33.8349 47.4173 34.7778 48.6454 34.7778C49.7638 34.7778 49.9173 33.8349 49.9612 33.5936C50.0269 33.2866 50.0269 33.0015 50.0269 31.5103H51.5182V31.5542Z" fill="white"/>
<path d="M37.2858 47.4051C37.2858 49.0718 37.2638 49.5104 37.1542 49.9928C37.0007 50.7165 36.584 51.9665 34.3472 51.9665C32.4393 51.9665 31.6717 50.8481 31.4744 49.6858C31.4305 49.3349 31.3428 48.8086 31.3428 45.6946C31.3428 42.4051 31.3866 42.0323 31.4744 41.4841C31.584 40.9358 31.891 39.1376 34.4568 39.1376C35.4875 39.1376 36.7594 39.5762 37.0665 40.9358C37.198 41.5279 37.198 42.2735 37.198 43.2384H35.7507V42.2955C35.7507 41.4402 35.7287 40.4314 34.4568 40.4314C33.141 40.4314 33.0314 41.4841 32.9656 41.9665C32.8559 42.8656 32.8559 44.7516 32.8559 45.6946C32.8559 46.4621 32.8998 48.9841 32.9656 49.4665C33.0094 49.6858 33.1849 50.6288 34.413 50.6288C35.5314 50.6288 35.6849 49.6858 35.7287 49.4446C35.7945 49.1376 35.7945 48.8525 35.7945 47.3613H37.2858V47.4051Z" fill="white"/>
<path d="M38.5566 51.813V39.3568H40.9031C42.1093 39.3568 43.2277 39.3568 43.9733 40.2998C44.5654 41.0235 44.6093 41.6814 44.6093 44.6858C44.6093 45.3656 44.6093 46.1551 44.5654 47.8437C44.5435 49.0498 44.5216 49.9489 44.061 50.6726C43.3593 51.791 42.197 51.791 40.8593 51.791H38.5566V51.813ZM40.1137 50.4533H41.1224C42.1093 50.4533 42.811 50.3656 42.9865 49.2472C43.0742 48.6551 43.0961 46.9226 43.0961 46.2647C43.0961 45.1244 43.0961 44.6858 43.0742 43.4796C43.0523 42.12 43.0303 41.4621 42.4821 41.0673C42.0873 40.8042 41.7365 40.8042 40.0917 40.8042V50.4533H40.1137Z" fill="white"/>
<path d="M45.5967 47.4928H47.0879C47.0879 48.8086 47.0879 48.9402 47.1098 49.1595C47.1318 49.4665 47.2414 50.6507 48.6011 50.6507C49.1054 50.6507 50.18 50.4533 50.18 49.0937C50.18 48.1068 49.7414 47.6024 49.0397 46.8788L47.3511 45.1463C46.1669 43.9402 45.9256 43.1726 45.9256 42.0323C45.9256 41.3524 45.9256 39.1156 48.8204 39.1156C49.4563 39.1156 50.5309 39.2252 51.1011 40.1463C51.4519 40.7384 51.4519 41.1551 51.4519 42.9752H50.0923C50.0484 41.791 50.0484 41.6595 50.0265 41.4402C49.9826 41.2209 49.8291 40.4314 48.7326 40.4314C47.4388 40.4314 47.4388 41.5498 47.4388 41.9226C47.4388 42.8656 47.7677 43.2384 48.6449 44.1595L50.2239 45.8042C51.2546 46.9007 51.7151 47.5366 51.7151 48.9621C51.7151 51.6156 49.6318 51.9445 48.7107 51.9445C47.5046 51.9445 46.8686 51.5498 46.6274 51.3305C45.8379 50.7165 45.6625 49.7735 45.6625 48.8524V47.4928H45.5967Z" fill="white"/>
<path d="M58 58.5H0V0.5H58V58.5ZM1.52919 56.949H56.449V2.02919H1.52919V56.949Z" fill="white"/>
</g>
<defs>
<clipPath id="clip0_449_6085">
<rect width="300" height="58" fill="white" transform="translate(0 0.5)"/>
</clipPath>
</defs>
</svg>
