<svg width="300" height="168" viewBox="0 0 300 168" fill="none" xmlns="http://www.w3.org/2000/svg">
<rect width="300" height="168" fill="#C06616"/>
<path fill-rule="evenodd" clip-rule="evenodd" d="M162.042 69.1668H154.552C153.8 67.0885 151.829 65.5835 149.5 65.5835C147.171 65.5835 145.2 67.0885 144.447 69.1668H136.958C134.987 69.1668 133.375 70.7793 133.375 72.7502V97.8335C133.375 99.8043 134.987 101.417 136.958 101.417H162.042C164.012 101.417 165.625 99.8043 165.625 97.8335V72.7502C165.625 70.7793 164.012 69.1668 162.042 69.1668ZM149.5 68.7189C149.894 68.7189 150.235 68.8981 150.485 69.1668C150.7 69.3997 150.844 69.7222 150.844 70.0627C150.844 70.7972 150.235 71.4064 149.5 71.4064C148.765 71.4064 148.156 70.7972 148.156 70.0627C148.156 69.7222 148.3 69.3997 148.515 69.1668C148.765 68.8981 149.106 68.7189 149.5 68.7189ZM136.958 97.8335H162.042V72.7502H136.958V97.8335ZM149.5 74.5418C146.544 74.5418 144.125 76.9606 144.125 79.9168C144.125 82.8731 146.544 85.2918 149.5 85.2918C152.456 85.2918 154.875 82.8731 154.875 79.9168C154.875 76.9606 152.456 74.5418 149.5 74.5418ZM147.708 79.9168C147.708 80.9022 148.515 81.7085 149.5 81.7085C150.485 81.7085 151.292 80.9022 151.292 79.9168C151.292 78.9314 150.485 78.1252 149.5 78.1252C148.515 78.1252 147.708 78.9314 147.708 79.9168ZM138.75 93.3006V96.0418H160.25V93.3006C160.25 88.8214 153.137 86.8864 149.5 86.8864C145.863 86.8864 138.75 88.8035 138.75 93.3006ZM149.5 90.4518C147.153 90.4518 144.125 91.4552 142.889 92.4585H156.111C154.893 91.4552 151.847 90.4518 149.5 90.4518Z" fill="white"/>
</svg>
